<?xml version="1.0" encoding="UTF-8"?>
<svg id="Laag_1" data-name="Laag 1" xmlns="http://www.w3.org/2000/svg" viewBox="0 0 1125 1125">
  <defs>
    <style>
      .cls-1 {
        fill: #abe6ed;
      }

      .cls-2 {
        fill: #adc936;
      }

      .cls-3 {
        opacity: .32;
      }

      .cls-3, .cls-4 {
        fill: #474f22;
      }

      .cls-4 {
        font-family: truensone, 'truens one';
        font-size: 16px;
      }
    </style>
  </defs>
  <text class="cls-4" transform="translate(-114.1 707.48) rotate(55.96)"><tspan x="0" y="0">W</tspan></text>
  <text class="cls-4" transform="translate(-104.25 720.28) rotate(45.01)"><tspan x="0" y="0">i</tspan></text>
  <text class="cls-4" transform="translate(-96.56 727.24) rotate(35.27)"><tspan x="0" y="0">d</tspan></text>
  <text class="cls-4" transform="translate(-85.43 734.24) rotate(24.47)"><tspan x="0" y="0">e</tspan></text>
  <text class="cls-4" transform="translate(-73.17 739.02) rotate(13.66)"><tspan x="0" y="0"> </tspan></text>
  <text class="cls-4" transform="translate(-61.88 741.35) rotate(3.07)"><tspan x="0" y="0">w</tspan></text>
  <text class="cls-4" transform="translate(-45.59 741.23) rotate(-9.2)"><tspan x="0" y="0">e</tspan></text>
  <text class="cls-4" transform="translate(-32.74 738.42) rotate(-20.08)"><tspan x="0" y="0">b</tspan></text>
  <circle class="cls-1" cx="562.5" cy="562.5" r="511.64"/>
  <g>
    <path class="cls-2" d="M974.03,478.85c-13.05-.09-14.38-37.97-26.76-43.79-12.37-5.81-46.97-20.05-49.92-7.34-2.95,12.71-58.01,12.02-58.1,25.07-.09,13.05-8.09,19.36-8.85,38.13-.76,18.77,52.77,57.01,59.42,62.15,6.65,5.14,46.12,51.87,56.47,74.86,10.35,22.99,9,34.44,1.92,45.21-7.08,10.77-9.44,30.81-17.19,47.31-7.75,16.5-26.44,2.69-33.76,3.27-7.32,.59-43.7,13.71-43.11,21.03,.59,7.32,31.65,26.95,43.01,41.35,11.36,14.4,4.96,19.45-1.53,37.55-6.49,18.1,3.11,10.52,1.76,21.97q-1.35,11.45-8.42,22.22c-7.07,10.77-17.26,11.02-26.45,52.02-9.19,41-30.74,26.85-56.67,49.91-17.13,15.23-18.62,37.38-18.46,61.02,32.08-15.72,63-35.02,92.19-58.05,38.05-30.02,70.68-64.35,97.77-101.76-6.72-2.71-12.6-4.23-15.8-3.28-10.52,3.11-22.99,10.35-36.04,10.26-13.05-.09-12.37-5.81-11.36-14.4,1.01-8.59,9.35-17.76,14.83-27.27,5.48-9.51,1.1-21.64,2.79-35.95,1.69-14.31,12.8-10.1,23.75-29.12,10.95-19.02,27.2-21.46,44.71-22.3,14.26-.68,22.55,8.52,37.69,11.87,39.53-99.29,47.27-209.34,21.27-313.72-13.44,4.6-33.47,21.63-40.86,25.39-9.26,4.71-31.24,6.47-44.29,6.39Z"/>
    <path class="cls-2" d="M496.03,63.74c2.35,9.03,6.23,11.81,17.28,15.4,13.97,4.55,10.1,12.8,12.53,29.05,2.44,16.25,28.2,19.29,40.91,22.24,12.71,2.95,1.69-14.31,4.3-24.16,2.61-9.85,25.17-4.29,33.92,19.96,8.75,24.25-.76,18.77,.66,43.61,1.42,24.84,11.7,11.54,26.6,20.55,14.9,9.01,1.51,11.79-11.38,34.94-12.89,23.15-.6,42.01,6.3,57.33,6.9,15.33,23.15,12.89,28.62,3.38,5.48-9.51-4.87-32.5,5.4-45.8,10.27-13.3,9.26-4.71,29.97-8.07,20.71-3.36,25.42,5.9,49.25,13.06,23.82,7.16,12.46-7.24,25.26-17.33,12.8-10.1,27.11-8.41,38.56-7.06,11.45,1.35,30.13,15.16,60.2-5.96,13.99-9.83,26.47-20.15,35.81-28.38-112.46-98.94-260.78-141.46-404.2-122.76Z"/>
    <path class="cls-2" d="M594.3,764.17c9.14-9.81,16.38-22.01,13.06-24.58-3.33-2.57-13.13-11.71-22.52-12.09-9.39-.38-13.34-3.75-23.7-2.07-10.36,1.68-32.92-3.88-32.92-3.88,0,0-8.8,6.94-1.18,10.02,7.62,3.08,13.47,8.84,18.56,8.72,5.09-.12,21.3,3.96,21.3,3.96,10.65,1.98,10.61,8.51,15.65,14.91,5.05,6.4,2.61,14.82,11.74,5.01Z"/>
    <path class="cls-2" d="M628.61,891.56c6.44,13.09,7.99,18.36,15.57,27.95,7.57,9.6,4.79,20.88,13.89,17.6,9.09-3.28-5.25-23.11-3.78-29.47,1.48-6.36,12.72-21.72,6.41-29.72-6.31-8-16.12-17.14-16.12-17.14-10.27,13.3-22.4,17.67-15.96,30.77Z"/>
    <path class="cls-2" d="M426.15,449.04c.76,5.89,.12,5.09-.09,13.05-.21,7.96,17,3.46,23.28-6.69,6.28-10.14-7.27-30.6-20.87-19.87,0,0-3.08,7.62-2.32,13.51Z"/>
    <path class="cls-2" d="M220.75,511.15l.42,8.76s6.19,2.91,12.42-.71c6.23-3.62,2.28-6.99,4.89-16.84,2.61-9.85-11.28-2.78-17.72,8.79Z"/>
    <path class="cls-2" d="M178.42,605.56c-5.6,4.42-12,9.47-12,9.47,0,0,4.29,25.17,22.05,9.86,0,0,9.56-1.05,8.8-6.94-.76-5.89,.43-15.91-6.27-14.52-6.69,1.39-6.99-2.28-12.59,2.14Z"/>
    <path class="cls-2" d="M896.61,655.45c3.28,9.09,1.56,5.26,6.6,11.66,5.05,6.4,2.69,26.44,12.45,17.43,9.77-9.01,14.36-4.84,11.71-13.13-2.65-8.29,.26-14.48-9.3-13.43l-9.56,1.05c5.18-13.17,10.95-19.02-4.62-22.31-15.57-3.29-19.02-10.95-21.64-1.1-2.61,9.85-12.97,11.53-1.06,15.11,11.91,3.58,12.12-4.37,15.4,4.72Z"/>
    <path class="cls-2" d="M708.74,255.29c-22.8,17.99-18.69,10.85-23.56,24.43-4.87,13.57-6.32,16.67-11.62,24.75-5.31,8.08-6.57,18.81,4.67,15.79,11.24-3.03,16.36-18.75,23.31-22.28,10.38-5.28,10.92,8.91,22.23-3.91,11.31-12.81,12.07-19.25,24.69-15.59,12.63,3.67,15.21,9.41,19.25,12.07,4.04,2.65,30.81-2.9,26.59-13.19-4.23-10.29-8.2-22.73-26.13-18.32-17.93,4.41-18.88,3.21-28.41,1-9.53-2.21-8.2-22.73-31-4.75Z"/>
    <path class="cls-2" d="M633.38,986.44c-4.67-15.79,8.21-14.27,8.98-33.04,.76-18.77-14.22-14.74-26.93-17.69-12.71-2.95-25.67-16.09-20.11-38.65,5.56-22.56,29.81-31.31,35.38-53.87,5.56-22.56,5.4-45.8-11.86-34.77-17.26,11.02-56.75,13.62-53.03-17.86,3.71-31.48-72.47-62.24-96.47-43.3-24,18.93-41.44,56.06-62.74,52.09-21.3-3.96-66.83-48.51-64.8-65.69,2.03-17.17-18.67-63.15-36.52-59.45-17.85,3.7-35.13,64.06-66.02,67.67-8.16,.95-19.16,1.95-30.88,.52-41.18,4.58-81.26,23.64-110.96,41.53,16.65,36.32,37.73,71.3,63.58,104.06,108.59,137.63,273.64,204.45,436.28,193.58,5.04-20.31,22.92-44.44,42.92-42.08,25.76,3.04,61.25-21.07,47.12-48.86-14.13-27.79-49.25,11.6-53.92-4.18Z"/>
    <path class="cls-2" d="M139.2,491.55c11.92,12.1,24.03,16.55,35.41,16.31,10-4.82,20.14-5.08,27.53-9.51,.72-.48,1.45-.96,2.15-1.47,19.2-15.15-24.82-47.91-12.61-65.33,12.21-17.42,32.92-20.78,50.35-8.57,17.42,12.21,7.06,38.56,28.02,45.39,20.96,6.83,33.09,2.45,54.72,3.55,21.64,1.1,13.05,.09,35.52,18.7,22.47,18.61,31.31,29.81,47.31,17.19,16-12.62,6.66-44.2-9.83-51.95-16.5-7.75-48.32-8.6-37.28-40.67,11.04-32.07,56.59-36.86,71.24-38.03,14.65-1.17,37.39-21.71,34.11-55.47-3.27-33.76-52.86-43.96-57.05-82.19-4.2-38.22,14.33-47.65,10.97-68.36-1.62-9.99-14.26-46.9-41.99-77.25-46.38,17.99-90.91,43.09-132,75.51C128,262.3,62.06,396.54,52.28,535.23c36.52-29.33,75.45-55.32,86.92-43.68Z"/>
  </g>
  <path class="cls-3" d="M855.08,151.16c131.61,247.48,71.7,561.19-156.14,740.95-113.61,89.64-249.9,130.88-384.05,126.73,174.88,96.67,397.98,85.44,564.69-46.09,221.84-175.03,259.79-496.75,84.76-718.59-32.01-40.57-68.95-74.91-109.26-103Z"/>
</svg>