<?xml version="1.0" encoding="UTF-8"?>
<svg id="Laag_1" data-name="Laag 1" xmlns="http://www.w3.org/2000/svg" viewBox="0 0 1125 1125">
  <defs>
    <style>
      .cls-1 {
        fill: #adc936;
      }

      .cls-2 {
        fill: #4a9aa0;
      }

      .cls-3 {
        fill: #474f22;
        opacity: .32;
      }
    </style>
  </defs>
  <circle class="cls-2" cx="562.41" cy="562.71" r="556.27"/>
  <g>
    <path class="cls-1" d="M1008.75,461.98c-14.19-.1-15.64-41.29-29.09-47.61-13.45-6.32-51.07-21.8-54.27-7.98-3.21,13.82-63.07,13.07-63.17,27.26-.1,14.19-8.79,21.05-9.62,41.46-.83,20.41,57.37,61.98,64.6,67.57,7.23,5.59,50.14,56.4,61.39,81.39,11.25,24.99,9.78,37.44,2.09,49.15-7.69,11.71-10.26,33.5-18.69,51.44-8.43,17.94-28.74,2.92-36.71,3.56-7.96,.64-47.51,14.9-46.87,22.87,.64,7.96,34.41,29.3,46.76,44.96,12.35,15.66,5.39,21.15-1.66,40.82-7.05,19.68,3.38,11.44,1.91,23.89q-1.47,12.45-9.16,24.16c-7.69,11.71-18.77,11.99-28.76,56.56-9.99,44.57-33.42,29.19-61.62,54.26-18.63,16.56-20.24,40.64-20.07,66.34,34.88-17.09,68.5-38.08,100.23-63.11,41.37-32.64,76.85-69.97,106.29-110.64-7.31-2.94-13.7-4.6-17.18-3.57-11.44,3.38-24.99,11.25-39.18,11.15-14.19-.1-13.45-6.32-12.35-15.65,1.1-9.34,10.17-19.31,16.12-29.65,5.95-10.34,1.2-23.52,3.03-39.08,1.84-15.56,13.92-10.98,25.82-31.66,11.91-20.68,29.57-23.33,48.61-24.24,15.51-.74,24.52,9.26,40.98,12.9,42.98-107.96,51.4-227.6,23.13-341.09-14.62,5.01-36.39,23.51-44.42,27.6-10.07,5.12-33.96,7.04-48.15,6.94Z"/>
    <path class="cls-1" d="M489.06,10.67c2.55,9.81,6.78,12.84,18.79,16.75,15.19,4.95,10.98,13.92,13.63,31.58,2.65,17.67,30.66,20.97,44.48,24.18,13.82,3.21,1.84-15.56,4.68-26.27,2.84-10.71,27.37-4.66,36.88,21.7,9.51,26.36-.83,20.41,.72,47.41,1.55,27,12.72,12.54,28.92,22.34,16.2,9.8,1.64,12.81-12.37,37.98-14.01,25.17-.65,45.67,6.85,62.33,7.5,16.66,25.17,14.01,31.12,3.67,5.95-10.34-5.3-35.33,5.87-49.79,11.17-14.46,10.07-5.12,32.59-8.78,22.52-3.65,27.64,6.42,53.54,14.2,25.9,7.79,13.55-7.87,27.46-18.85,13.92-10.98,29.48-9.14,41.92-7.68,12.45,1.47,32.76,16.49,65.45-6.48,15.21-10.69,28.77-21.91,38.93-30.86C806.24,36.56,644.98-9.66,489.06,10.67Z"/>
    <path class="cls-1" d="M595.9,772.19c9.93-10.66,17.81-23.93,14.2-26.72-3.62-2.79-14.27-12.73-24.48-13.14-10.21-.41-14.51-4.08-25.77-2.25-11.26,1.83-35.79-4.22-35.79-4.22,0,0-9.57,7.55-1.28,10.89,8.28,3.34,14.64,9.62,20.18,9.48,5.54-.14,23.16,4.31,23.16,4.31,11.58,2.15,11.53,9.25,17.02,16.21,5.49,6.96,2.83,16.11,12.77,5.45Z"/>
    <path class="cls-1" d="M633.2,910.69c7,14.23,8.69,19.96,16.92,30.39,8.23,10.44,5.21,22.7,15.1,19.13,9.89-3.57-5.71-25.13-4.11-32.04,1.6-6.91,13.83-23.61,6.97-32.31-6.86-8.7-17.52-18.63-17.52-18.63-11.17,14.46-24.35,19.21-17.36,33.45Z"/>
    <path class="cls-1" d="M413.08,429.58c.82,6.41,.14,5.54-.1,14.19-.23,8.65,18.49,3.76,25.31-7.27,6.82-11.03-7.91-33.27-22.69-21.61,0,0-3.34,8.28-2.52,14.69Z"/>
    <path class="cls-1" d="M189.77,497.1l.45,9.52s6.73,3.16,13.5-.77c6.77-3.93,2.47-7.6,5.31-18.3,2.84-10.71-12.26-3.03-19.27,9.56Z"/>
    <path class="cls-1" d="M143.74,599.74c-6.09,4.8-13.05,10.29-13.05,10.29,0,0,4.66,27.37,23.98,10.72,0,0,10.39-1.14,9.57-7.55-.82-6.41,.46-17.3-6.81-15.79-7.28,1.51-7.6-2.47-13.68,2.33Z"/>
    <path class="cls-1" d="M924.58,653.99c3.57,9.89,1.69,5.72,7.18,12.68,5.49,6.96,2.92,28.74,13.54,18.95,10.62-9.79,15.61-5.26,12.73-14.27-2.88-9.02,.28-15.74-10.11-14.6l-10.39,1.14c5.63-14.32,11.91-20.68-5.03-24.26-16.93-3.58-20.68-11.91-23.52-1.2-2.84,10.71-14.1,12.54-1.15,16.43,12.95,3.89,13.18-4.76,16.75,5.13Z"/>
    <path class="cls-1" d="M720.32,218.92c-24.79,19.56-20.32,11.8-25.61,26.56-5.29,14.76-6.87,18.12-12.64,26.91-5.77,8.79-7.15,20.46,5.07,17.16,12.22-3.29,17.79-20.38,25.34-24.22,11.28-5.74,11.87,9.68,24.17-4.25,12.29-13.93,13.12-20.93,26.85-16.95,13.73,3.99,16.54,10.23,20.93,13.12,4.39,2.88,33.5-3.15,28.91-14.34-4.6-11.19-8.92-24.72-28.41-19.92-19.5,4.8-20.53,3.49-30.89,1.09-10.36-2.41-8.92-24.72-33.7-5.16Z"/>
    <path class="cls-1" d="M638.39,1013.85c-5.08-17.16,8.93-15.51,9.76-35.92,.83-20.41-15.46-16.02-29.28-19.23-13.82-3.21-27.91-17.49-21.86-42.02,6.05-24.53,32.41-34.04,38.46-58.57,6.05-24.53,5.87-49.79-12.89-37.81-18.77,11.98-61.7,14.81-57.66-19.42,4.04-34.23-78.79-67.67-104.88-47.08-26.09,20.59-45.05,60.95-68.21,56.64-23.16-4.31-72.66-52.74-70.46-71.42,2.2-18.67-20.3-68.66-39.71-64.63-19.41,4.02-38.19,69.64-71.78,73.57-8.87,1.04-20.83,2.12-33.57,.56-44.77,4.97-88.34,25.7-120.64,45.16,18.1,39.49,41.02,77.52,69.13,113.14,118.06,149.64,297.51,222.29,474.33,210.46,5.48-22.08,24.91-48.32,46.66-45.75,28.01,3.3,66.6-22.91,51.23-53.12-15.37-30.21-53.55,12.61-58.62-4.55Z"/>
    <path class="cls-1" d="M101.1,475.79c12.96,13.15,26.13,17.99,38.5,17.73,10.87-5.24,21.89-5.52,29.93-10.34,.79-.53,1.58-1.04,2.34-1.59,20.87-16.47-26.99-52.09-13.71-71.03,13.28-18.94,35.8-22.6,54.74-9.32,18.94,13.28,7.68,41.92,30.46,49.35,22.79,7.42,35.97,2.67,59.49,3.86,23.52,1.2,14.19,.1,38.62,20.33,24.43,20.24,34.04,32.41,51.44,18.69,17.39-13.72,7.25-48.05-10.69-56.48-17.94-8.43-52.54-9.35-40.54-44.22,12-34.87,61.52-40.07,77.45-41.35,15.93-1.28,40.65-23.6,37.09-60.31-3.56-36.71-57.47-47.8-62.03-89.35-4.56-41.56,15.58-51.8,11.92-74.32-1.76-10.86-15.51-50.99-45.66-83.99-50.43,19.56-98.84,46.84-143.52,82.09C88.92,226.55,17.24,372.49,6.6,523.28c39.71-31.89,82.03-60.14,94.5-47.49Z"/>
  </g>
  <path class="cls-3" d="M880.51,105.71c143.09,269.07,77.95,610.14-169.76,805.58-123.52,97.46-271.7,142.29-417.55,137.78,190.13,105.1,432.69,92.89,613.94-50.11,241.19-190.29,282.45-540.08,92.16-781.27-34.8-44.1-74.97-81.45-118.79-111.99Z"/>
</svg>