<?xml version="1.0" encoding="utf-8"?>
<!-- Generator: Adobe Illustrator 27.5.0, SVG Export Plug-In . SVG Version: 6.00 Build 0)  -->
<svg version="1.1" xmlns="http://www.w3.org/2000/svg" xmlns:xlink="http://www.w3.org/1999/xlink" x="0px" y="0px"
	 viewBox="0 0 1122 1122" style="enable-background:new 0 0 1122 1122;" xml:space="preserve">
<g id="Bg">
</g>
<g id="Shadow">
	<path style="opacity:0.15;fill:#DA97A6;" d="M476.362,1011.963c-65.934-8.805-124.239-22.729-192.92-27.416
		c-18.471-1.26-39.5-4.839-44.352-11.479c-5.109-6.991,10.808-12.942,27.251-16.189c32.692-6.456,58.137-10.412,88.04-19.632
		c10.024-3.091,20.15-6.206,31.665-8.24c13.957-2.466,29.434-3.252,44.776-3.802c78.284-2.807,150.592,3.52,228.578,7.23
		c67.036,3.189,127.085,2.195,190.18,17.469c22.927,5.55,47.915,10.637,33.393,21.02c-26.786,19.151-129.203,30.252-183.214,37.868
		C633.264,1018.168,548.79,1021.635,476.362,1011.963z"/>
</g>
<g id="Object">
	<g id="OpDz6l_2_">
		<g>
			<path style="fill:#EACF9A;" d="M491.774,290.523c-2.824-3.769-0.821-7.839-0.521-11.713c0.332-4.276,2.277-8.19,4.309-11.948
				c3.447-6.376,4.592-12.973,3.391-20.234c-1.267-7.654,0.035-15.154,4.423-21.689c6.914-10.297,9.178-21.992,11.264-33.887
				c1.939-11.06,6.762-21.108,13.866-29.706c5.857-7.088,14.219-10.27,23.252-11.563c1.395-0.2,2.782-0.46,4.173-0.692
				c2.607-0.82,5.365,0.314,7.964-0.613c0.438,0,0.877,0,1.315,0c0.145,0.155,0.276,0.429,0.437,0.448
				c15.11,1.772,25.086,10.872,32.582,23.207c3.617,5.953,7.885,11.542,10.255,18.251c2.722,7.706,2.394,15.701,2.831,23.637
				c0.599,10.908,5.239,20.059,13.786,26.46c6.948,5.203,11.388,11.242,12.393,19.808c1.206,7.111-0.682,13.926-2.115,20.76
				c-0.381,1.816-2.024,2.793-3.915,3.069c-1.415,0.207-2.852,0.242-4.264,0.125c-3.81-0.315-7.126,0.276-9.481,3.783
				c-1.088,1.62-3.036,2.078-4.973,2.115c-3.175,0.06-6.359,0.231-9.486-0.544c-2.057-0.51-4.113-0.352-6.201-0.179
				c-6.292,0.521-8.312-1.09-9.446-7.27c-0.319-1.739-0.355-3.483-0.318-5.235c-0.482-6.476-0.672-12.969-2.889-19.22
				c-0.996-2.807-2.115-5.759-1.13-8.886c0.098-1.542,0.396-3.062,1.103-4.431c5.254-10.175,5.253-21.573,7.672-32.41
				c1.87-8.376-1.291-14.735-6.953-20.381c-6.997-6.979-14.595-13.197-23.125-18.234c-3.263-1.927-5.88-4.532-7.996-7.657
				c-0.858-1.268-1.688-2.054-2.981-0.378c-7.549,9.784-15.394,19.364-20.693,30.664c-1.01,2.403-2.151,4.759-2.558,7.372
				c-0.745,4.351-0.732,8.714-0.044,13.055c0.444,2.806,1.232,5.56,1.705,8.355c1.304,7.715,4.495,14.223,10.576,19.417
				c2.691,2.299,5.027,5.168,6.886,8.3c2.009,3.571,3.281,7.397,3.656,11.465c0.531,5.755,2.66,11.256,2.513,17.131
				c-0.08,3.195-0.354,6.309-1.347,9.345c-0.196,1.086-0.658,2.082-1.082,3.089c-2.229,5.283-3.81,5.52-9.406,4.031
				c-4.928-1.311-10.282-1.178-15.135,0.618c-5.189,1.921-8.778,0.557-11.992-3.632c-3.069-4-4.749-4.046-8.48-0.755
				c-1.646,1.452-3.499,1.931-5.471,1.153C497.19,293.77,494.309,292.459,491.774,290.523z"/>
			<path style="fill:#583539;" d="M666.435,524.091c1.758,12.449,4.454,24.701,7.671,36.847c2.89,10.91,3.97,22.12,5.335,33.277
				c0.501,4.094-0.957,5.967-5.63,7.492c-4.645,1.516-9.56,2.16-14.003,4.333c-1.647,1.89-4.049,2.08-6.234,2.593
				c-9.912,2.326-19.977,3.665-30.12,4.5c-12.302,1.013-24.614,1.617-36.96,1.252c-1.096-0.032-2.185,0.027-3.239,0.371
				c-1.756,0.304-3.492,0.728-5.271,0.908c-7.161,1.056-14.391,1.132-21.563,0.72c-14.586-0.838-29.284,0.032-43.748-2.885
				c-3.507-0.708-7.192-0.512-10.593-1.896c-3.528-0.727-7.121-1.232-10.568-2.239c-4.141-1.21-5.274-3.491-4.67-7.856
				c0.177-1.28,0.184-2.624-0.521-3.826c-0.962-1.036-1.06-2.334-1.059-3.641c0.002-4.86-0.122-9.721,0.058-14.579
				c-0.022-3.299-0.247-6.604,0.216-9.893c0.331-1.15,0.545-2.317,0.488-3.525c-0.273-5.756,0.293-11.479,0.668-17.209
				c0.041-0.572,0.083-1.145,0.22-1.704c0.689-1.944,0.415-3.961,0.423-5.956c-0.01-1.092,0.06-2.178,0.275-3.251
				c0.593-1.721,0.393-3.505,0.401-5.271c0.001-0.893,0.09-1.776,0.271-2.649c0.591-1.684,0.367-3.436,0.417-5.165
				c0.015-0.697,0.111-1.385,0.263-2.064c0.475-1.316,0.393-2.69,0.411-4.054c0.019-0.707,0.109-1.404,0.269-2.092
				c2.291-13.79,4.441-27.607,8.575-41.014c1.033-3.35,2.37-6.572,3.701-9.802c0.285-0.606,0.604-1.197,0.882-1.806
				c1.129-2.801,2.101-5.665,3.272-8.452c0.82-2.043,1.736-4.043,2.708-6.017c1.169-2.907,2.859-5.582,3.793-8.594
				c0.775-1.699,1.406-3.474,2.629-4.939c0.592-0.541,1.302-0.82,2.078-0.968c0.651-0.127,1.308-0.168,1.965-0.164
				c22.117,0.124,44.224-1.319,66.337-0.588c6.655,0.22,13.336,0.391,19.989,1.035c8.78,0.849,17.488-0.383,26.189-1.409
				c1.633-0.193,3.256-0.467,4.894-0.11c2.136,0.595,3.01,2.348,3.719,4.194c2.41,6.27,4.858,12.524,7.2,18.82
				c5.276,14.352,9.553,29.015,13.476,43.782c1.457,5.486,2.872,10.982,4.456,16.432
				C666.177,519.342,666.562,521.679,666.435,524.091z"/>
			<path style="fill:#D56B7E;" d="M637.551,434.563c-6.942,0.639-13.873,1.632-20.828,1.843
				c-14.956,0.454-29.859-1.396-44.831-1.317c-18.464,0.098-36.914,1.155-55.383,0.727c-1.109-1.255-0.593-2.697-0.405-4.062
				c1.251-9.072,2.419-18.148,2.117-27.338c0.113-5.084-0.212-10.137-1.064-15.153c-0.974-7.829-2.214-15.621-3.486-23.406
				c-0.655-4.012-0.828-4.115-4.92-4.015c-7.131,0.173-14.202-0.259-21.203-1.662c-2.519-1.638-5.503-1.18-8.25-1.79
				c-3.221-0.714-4.274-1.948-3.758-5.251c2.247-14.368,4.307-28.755,5.591-43.251c0.386-4.359,1.87-8.528,3.79-12.51
				c1.498-3.106,3.953-5.183,6.85-6.855c2.775,0.085,4.833,1.881,7.122,3.072c2.861,1.488,5.153,1.209,7.153-1.442
				c1.632-2.163,4.986-2.704,6.481-0.518c4.245,6.207,9.277,8.097,16.342,4.9c3.151-1.426,6.855,0.292,10.252-0.691
				c1.127-0.326,2.079,0.429,3.029,0.977c3.341,1.926,5.482,1.31,7.078-2.124c0.639-1.375,1.059-2.852,1.579-4.283
				c0.616-1.061,1.695-1.239,2.76-1.514c10.658-2.754,21.102-6.099,30.911-11.207c1.12-0.583,2.234-1.445,3.659-0.905
				c0.239,1.838,0.056,3.685,0.478,5.544c1.291,5.691,2.18,6.95,7.557,6.107c4.932-0.772,9.456,1.104,14.257,0.936
				c3.559-0.125,6.424-0.595,8.308-3.953c0.908-1.618,2.475-2.314,4.455-2.186c2.402,0.156,4.82,0.053,7.231,0.1
				c2.766,0.054,4.058-1.25,4.578-4.012c1.187-6.306,1.713-12.684,2.492-19.035c6.226,1.29,12.286,3.089,17.988,5.957
				c3.828,1.926,6.695,4.763,8.685,8.62c6.325,12.264,11.578,24.961,15.893,38.062c1.059,3.214,2.319,6.365,3.572,9.511
				c1.707,4.287,1.45,5.006-2.794,6.889c-0.598,0.265-1.222,0.473-1.834,0.708c-3.698,2.745-8.174,3.531-12.425,4.83
				c-6.593,2.014-13.463,2.805-20.178,4.288c-5.905,1.304-6.02,1.365-5.907,7.286c0.088,4.59-1.235,9.099-0.639,13.708
				c-1.897,19.109-1.174,38.271-1.184,57.414c-0.002,3.594,0.832,7.179,0.547,10.803
				C639.048,430.526,639.14,432.776,637.551,434.563z"/>
			<path style="fill:#F4DAD9;" d="M593.364,931.808c-0.225-8.349-0.316-16.707-1.93-24.947c-0.371-1.249-1.088-2.346-1.24-3.712
				c-1.264-11.369-2.66-22.723-3.876-34.098c-0.296-2.77-1.593-5.463-0.773-8.336c-0.504-6.988-2.278-13.795-2.924-20.766
				c-0.887-9.567-1.16-19.181-2.275-28.727c-0.616-4.11-0.834-8.263-1.276-12.394c-1.237-11.54-2.854-23.071-3.444-34.64
				c-0.59-11.575-0.795-23.176-1.362-34.767c-0.662-13.551-1.57-27.093-2.027-40.65c-0.724-21.476,0.419-42.905,2.252-64.302
				c0.2-2.331,0.171-4.725,1.125-6.725c-0.029-0.9-0.063-1.798-0.098-2.695c-2.747,0.22-5.495,0.462-8.24,0.44
				c-8.941-0.071-17.881-0.326-26.819-0.584c-4.355-0.125-8.703,0.056-13.07-0.465c-8.427-1.006-16.783-2.683-25.306-2.838
				c1.083,0.759,1.831,1.58,2.109,3.064c1.308,6.957,2.681,13.907,4.279,20.802c4.383,18.909,9.929,37.565,13.25,56.699
				c4.398,25.343,9.853,50.468,14.814,75.694c2.397,12.185,5.091,24.337,6.818,36.622c1.972,14.034,4.462,27.958,7.032,41.882
				c0.889,4.82,2.861,9.409,2.978,14.382c-0.055,1.785,0.545,3.439,1.011,5.122c1.455,5.26,3.432,10.396,3.952,15.881
				c1.413,14.888,2.761,29.781,2.727,44.759c0.952,3.943,0.232,8.005,0.852,11.971c-0.06,3.299-0.62,6.532-1.293,9.75
				c-0.542,4.024-0.428,8.071-0.266,12.103c0.191,4.738,2.069,6.607,6.821,7.169c2.282,0.27,4.602-0.073,6.87,0.322
				c4.885,0.851,9.561-0.319,14.229-1.433c2.826-0.674,4.446-2.526,4.869-5.492c0.433-3.036,0.573-6.077,0.739-9.133
				C594.236,945.092,592.88,938.475,593.364,931.808z"/>
			<path style="fill:#EFD0D0;" d="M673.448,700.804c-2.41-13.651-3.7-27.423-5.635-41.121c-1.296-9.17-2.679-18.332-3.7-27.534
				c-0.976-8.789-4.131-17.201-4.305-26.108c-2.116,0.536-4.22,1.124-6.35,1.598c-20.704,4.6-41.715,5.909-62.854,5.886
				c-1.006-0.001-2.024-0.105-3.039-0.163c0.33,0.654,0.654,1.311,0.973,1.97c2.094,1.209,2.948,3.785,3.516,6.7
				c0.125,0.639,0.401,1.25,0.634,1.864c4.586,12.075,9.348,24.086,12.623,36.617c1.661,6.356,3.845,12.552,5.898,18.792
				c4.143,12.59,9.485,24.737,13.496,37.37c3,9.45,2.962,9.358-3.193,17.276c-10.308,13.258-18.547,27.869-27.06,42.278
				c-5.918,10.017-9.355,21.219-14.266,31.728c-0.483,1.033-1.111,2.163-0.53,3.415c-0.089,2.956,0.436,5.871,0.608,8.799
				c0.589,10.004,0.922,20.036,2.801,29.896c0.679,3.561,0.288,7.426,2.479,10.648c3.299-5.291,6.896-10.355,10.92-15.134
				c8.158-9.688,16.864-18.937,24.186-29.3c7.122-10.081,14.45-20.011,21.261-30.321c9.329-14.121,19.073-27.876,25.791-43.63
				C673.462,728.823,675.975,715.12,673.448,700.804z"/>
			<path style="fill:#F4DAD9;" d="M638.936,359.611c-0.502-6.026,1.212-11.969,0.663-17.998c-0.176-1.928,1.48-1.925,2.633-2.294
				c6.673-2.14,13.676-2.763,20.471-4.377c5.542-1.316,10.79-3.532,16.3-4.904c-0.911,3.506,0.521,6.849,0.817,10.262
				c0.471,5.427,1.126,10.83,1.179,16.291c0.107,11.019,2.08,21.899,2.517,32.898c0.595,14.954,1.427,29.896,0.176,44.868
				c-1.558,18.65-6.858,36.576-10.324,54.855c-2.068,10.908-3.701,21.899-6.237,32.717c-0.172,0.736-0.462,1.444-0.698,2.165
				c-2.913-10.622-6.023-21.196-8.686-31.88c-2.985-11.973-7.284-23.515-10.942-35.266c1.323-9.522,2.022-19.107,2.981-28.667
				c1.645-16.396-1.642-32.191-5.218-48.008c-1.828-8.087-4.018-16.127-4.607-24.337
				C639.803,357.125,641.107,358.845,638.936,359.611z"/>
			<path style="fill:#DA97A6;" d="M560.609,948.23c1.34,2.573,0.556,5.333,0.601,7.991c0.169,9.903,0.522,10.26,10.311,10.461
				c3.669,0.076,7.281,0.492,11.002,0.032c8.38-1.036,10.12-2.527,10.237-10.963c0.081-5.87,0.503-11.753-0.455-17.634
				c-0.329-2.023-0.734-4.326,0.51-6.349c3.604-3.883,7.508-7.426,11.867-10.452c1.893-0.426,3.135,0.619,4.225,1.922
				c6.966,8.324,9.352,18.106,8.904,28.705c-0.125,2.969-3.111,4.653-7.03,4.109c-4.426-0.614-8.863-1.251-13.217-2.229
				c-2.317-0.52-2.985-0.056-2.783,2.25c0.277,3.151,0.692,6.284,0.772,9.465c0.069,2.753-0.524,5.248-1.81,7.54
				c-3.866,6.893-8.503,13.239-14.131,18.813c-2.994,2.965-4.728,2.935-8.439,0.759c-8.725-5.117-12.319-13.036-13.297-22.742
				c-0.644-6.398-0.198-12.603,1.362-18.789C559.509,950.052,559.721,948.99,560.609,948.23z"/>
			<path style="fill:#EFD0D0;" d="M553.36,860.746c2.636,5.283,3.964,11.007,5.197,16.698c1.59,7.34,1.54,14.889,2.185,22.352
				c0.771,8.914,1.307,17.804,1.166,26.742c-1.722,0.004-1.943-1.555-2.607-2.587c-5.279-8.208-9.152-17.219-14.499-25.394
				c-1.08-1.652-1.753-3.61-1.926-5.56c-0.644-7.297,0.069-14.424,3.246-21.152C548.536,868.146,550.948,864.446,553.36,860.746z"/>
			<path style="fill:#DA98A6;" d="M546.123,871.845c-0.842,4.253-1.948,8.474-2.463,12.766c-0.714,5.953,0.346,11.388,3.823,16.725
				c5.273,8.095,9.155,17.057,14.425,25.201c0.948,3.98,1.115,7.961-0.007,11.941c-5.396-9.077-10.784-18.16-16.192-27.23
				c-2.676-4.488-5.658-8.779-7.61-13.699C533.62,886.256,535.95,880.48,546.123,871.845z"/>
			<path style="fill:#EFD0D0;" d="M604.681,921.316c-3.462,4.044-7.43,7.515-11.866,10.452c-0.605-8.295-1.71-16.562-1.38-24.908
				C594.821,912.623,599.844,916.884,604.681,921.316z"/>
			<path style="fill:#F0CCCA;" d="M489.599,362.896c0.993,1.533,1.012,3.062-0.016,4.588
				C489.589,365.955,489.594,364.426,489.599,362.896z"/>
			<path style="fill:#F0CCCA;" d="M486.273,439.141c-0.138,1.118,0.449,2.371-0.622,3.313
				C485.754,441.33,485.28,440.098,486.273,439.141z"/>
			<path style="fill:#F0CCCA;" d="M485.619,443.754c-0.144,1.117,0.45,2.378-0.641,3.312
				C485.092,445.942,484.613,444.704,485.619,443.754z"/>
			<path style="fill:#F4DAD9;" d="M529.683,195.797c3.41-7.6,7.879-14.551,12.974-21.115c2.675-3.447,5.467-6.808,8.01-10.349
				c1.305-1.816,2.095-2.306,3.391-0.051c2.466,4.289,6.352,6.955,10.452,9.641c9.317,6.106,18.204,12.822,25.169,21.725
				c4.23,5.407,4.166,11.45,3.048,17.756c-1.159,6.536-2.21,13.091-3.266,19.644c-0.672,4.168-2.805,7.785-4.322,11.632
				c-0.489,1.241-0.884,2.457-0.955,3.78c-0.845,1.578-2.041,2.812-3.616,3.67c-2.873,1.566-5.801,3.083-8.443,4.989
				c-4.902,3.535-10.209,2.727-15.369,1.444c-4-0.994-7.724-2.993-10.597-6.182c-3.683-4.01-7.292-8.092-11.074-12.005
				c-2.43-2.514-3.961-5.403-4.793-8.757c-2.018-8.129-4.533-16.174-3.896-24.722c0.097-1.301-0.031-2.633,0.667-3.826
				C528.395,200.812,529.172,198.353,529.683,195.797z"/>
			<path style="fill:#F4D5D4;" d="M546.158,252.382c2.385,0.595,4.182,2.297,6.179,3.537c4.023,2.498,8.526,2.399,12.885,2.97
				c2.598,0.34,4.783-1.482,6.842-2.793c4.027-2.565,8.523-4.396,12.12-7.634c-1.126,3.586,0.398,6.851,1.46,10.073
				c1.966,5.959,2.186,12.099,2.494,18.253c-11.781,6.361-24.301,10.694-37.331,13.628c1.73-6.018,1.61-11.97,0.214-18.107
				C549.503,265.638,549.232,258.676,546.158,252.382z"/>
			<path style="fill:#F3D4CA;" d="M529.683,195.797c0.169,2.801-0.192,5.411-2.622,7.275
				C527.299,200.417,528.456,198.094,529.683,195.797z"/>
			<path style="fill:#F0CCCA;" d="M513.138,441.166c-1.134,0.657-2.405,1.083-2.948-0.511c-0.716-2.096,0.15-3.959,1.951-5.047
				c1.233-0.744,2.795-0.88,3.217,1.226C514.618,438.279,513.878,439.723,513.138,441.166z"/>
			<path style="fill:#F0CCC9;" d="M487.65,547.183c0.171-2.012-0.616-4.106,0.51-6.038
				C488.062,543.164,488.559,545.233,487.65,547.183z"/>
			<path style="fill:#F0CCC9;" d="M488.333,538.096c0.13-1.838-0.649-3.758,0.498-5.504
				C488.722,534.432,489.219,536.327,488.333,538.096z"/>
			<path style="fill:#F0CCC9;" d="M488.978,530.13c0.146-1.809-0.601-3.698,0.485-5.422
				C489.379,526.522,489.869,528.388,488.978,530.13z"/>
			<path style="fill:#F0CCCA;" d="M502.837,465.526c-0.546-0.299-1.358-0.551-0.92-1.354c0.369-0.677,1.014-0.708,1.495,0.043
				C503.421,464.741,503.33,465.221,502.837,465.526z"/>
			<path style="fill:#F0CCC9;" d="M489.611,522.808c0.135-1.346-0.504-2.791,0.518-4.023
				C490.128,520.148,490.374,521.543,489.611,522.808z"/>
			<path style="fill:#ECC8C6;" d="M606.097,614.229c1.071,0,2.141,0,3.772,0C608.291,616.041,607.142,614.814,606.097,614.229z"/>
			<path style="fill:#F0CCC9;" d="M483.002,532.18c0.088-0.347,0.294-1.287,0.568-2.207c0.2-0.672,0.217-1.833,1.228-1.494
				c0.917,0.307,1.534,1.323,0.844,2.355c-0.696,1.04-1.148,1.999-0.751,3.299c0.215,0.703,0.158,1.77-0.767,1.849
				c-1.246,0.107-1.038-1.073-1.115-1.881C482.968,533.672,483.002,533.235,483.002,532.18z"/>
			<path style="fill:#F0CCCA;" d="M489.036,454.303c-1.989,0.093-3.568-0.909-3.707-2.544c-0.141-1.658,1.763-1.945,3.156-2.017
				c1.859-0.096,3.332,0.997,3.388,2.719C491.919,453.868,490.365,454.376,489.036,454.303z"/>
			<path style="fill:#F4DAD9;" d="M519.106,404.319c0.196-5.094,0.115-10.167-1.145-15.151c-0.764-8.57-2.379-17.018-3.648-25.515
				c-0.316-2.118-1.289-2.801-3.471-2.754c-5.116,0.11-10.226,0.117-15.356-0.453c-7.366-0.818-7.537-1.482-5.752,5.662
				c1.375,5.504,0.86,11.359,0.36,16.942c-1.805,20.159-3.611,40.318-5.417,60.477c-1.768,19.738-1.363,39.387-6.516,58.706
				c-1.425,5.344-3.14,10.607-4.576,15.948c-3.879,14.425-5.711,29.398-5.423,44.333c0.259,13.432,8.161,22.559,15.252,33.268
				c0.63,0.951,1.502,1.943,2.909,1.901c-0.054-6.14-0.108-12.28-0.163-18.419c0.064-3.212,0.128-6.424,0.192-9.636
				c0.292-1.588,0.3-3.185,0.27-4.783c0.31-5.497,0.62-10.995,0.93-16.492c0.033-0.39,0.066-0.779,0.099-1.17
				c0.717-1.966-0.155-4.067,0.51-6.037c0.058-1.016,0.115-2.033,0.173-3.049c0.635-1.792-0.155-3.714,0.498-5.505
				c0.049-0.821,0.098-1.641,0.147-2.462c0.662-1.763-0.129-3.655,0.486-5.422c0.049-0.633,0.098-1.266,0.147-1.899
				c0.681-1.276-0.089-2.738,0.518-4.023c0.06-0.619,0.121-1.239,0.181-1.858c0.135-0.294,0.345-0.577,0.394-0.885
				c2.693-17.164,5.52-34.294,12.133-50.516c-0.119-0.573-0.19-1.125,0.574-1.311c1.42-2.738,2.432-5.634,3.29-8.587
				c1.124-1.873,1.991-3.857,2.596-5.956c1.492-2.74,3.376-5.303,3.841-8.506c-1.393-0.491-2.741-1.014-1.98-2.949
				c0.844-2.147,2.356-2.269,4.199-1.382c0.384-0.34,0.768-0.679,1.152-1.019C517.923,425.362,519.715,414.94,519.106,404.319z"/>
			<path style="fill:#CE546B;" d="M557.806,240.56c0.969,0.064,1.901,0.178,2.623-0.391c2.868-2.261,4.815,0.605,7.145,1.262
				c0.597,0.168,0.574,0.693,0.286,1.316c-2.177,4.717-9.438,6.529-13.351,3.25c-0.851-0.713-2.625-1.35-1.863-2.626
				c0.874-1.463,2.25-2.884,4.292-2.97C557.255,240.387,557.578,240.515,557.806,240.56z"/>
			<path style="fill:#E8BEBB;" d="M560.37,232.976c-4.082,0.044-8.471-4.214-7.449-6.85c2.029-5.228,3.712-10.488,4.24-16.14
				c1.506,2.528,1.552,4.988,0.975,7.759C557.067,222.886,555.119,228.248,560.37,232.976z"/>
			<path style="fill:#DDC0A2;" d="M582.372,191.602c-3.675,0.709-6.751-0.813-9.87,0.153c-1.4,0.434-2.972,0.535-4.415,1.02
				c-0.516,0.173-1.079,0.466-1.418-0.158c-0.282-0.519-0.026-1.047,0.34-1.494c1.444-1.76,3.607-2.21,5.578-2.346
				C575.875,188.551,579.389,188.287,582.372,191.602z"/>
			<path style="fill:#DDC0A2;" d="M534,197.412c-0.57-0.729-0.453-1.364-0.118-1.948c1.537-2.671,8.885-5.65,11.903-4.877
				c0.804,0.206,1.451,0.545,1.532,1.43c0.078,0.858-0.552,1.074-1.251,1.126C541.655,193.471,537.73,195.222,534,197.412z"/>
			<path style="fill:#3FA1BA;" d="M543.472,212.921c-0.121,1.378-0.671,2.517-2.071,2.567c-1.736,0.062-2.425-1.199-2.528-2.778
				c-0.089-1.361,0.359-2.421,1.926-2.439C542.563,210.253,543.219,211.436,543.472,212.921z"/>
			<path style="fill:#42A2BA;" d="M577.69,209.448c0.091,1.63-0.886,2.346-2.124,2.505c-1.52,0.195-2.447-0.694-2.516-2.233
				c-0.065-1.463,0.798-2.147,2.213-2.169C576.645,207.529,577.5,208.163,577.69,209.448z"/>
		</g>
	</g>
	<g id="WdP2Kc_1_">
		<g>
			<path style="fill:#282424;" d="M681.885,989.115c6.107-1.24,8.44-6.148,10.674-11.086c5.301-11.717,8.331-24.081,10.303-36.737
				c1.489-9.56,2.988-19.119,1.952-28.849c-0.382-3.592-0.728-7.191-1.701-10.689c-1.534,0.32-1.412,1.707-1.692,2.76
				c-0.986,3.709-1.763,7.47-2.025,11.303c-0.625,9.122-3.052,17.795-6.424,26.32c-0.946-2.997-0.81-6.071-1.058-9.103
				c-0.418-5.101-2.22-7.448-6.135-8.11c-4.797-0.811-7.773,0.857-9.896,5.544c-0.748,1.652-1.289,3.382-1.89,5.089
				c-0.425,1.207-0.761,2.439-0.894,3.271c-1.468-6.85-1.175-14.257-1.749-21.599c-0.087-1.115,0.304-3.155-2.128-2.493
				c-3.654,10.468-3.293,21.422-3.779,32.254c-0.17,3.8,0.047,7.625-0.282,11.431c-0.634,2.553,0.531,5.165-0.248,7.714
				c0.063,1.491,0.125,2.983,0.188,4.474c1.017,3.644,0.809,7.512,2.123,11.114c2.082,5.707,3.807,7.003,10.04,7.255
				c1.325,0.113,2.679-0.478,3.983,0.163C681.459,989.133,681.672,989.124,681.885,989.115z"/>
			<path style="fill:#272424;" d="M763.047,908.964c-1.698-0.118-1.111,1.151-1.142,1.963c-0.396,10.338,1.436,20.336,5.154,29.927
				c3.91,10.085,8.277,19.992,12.277,30.043c2.904,7.296,7.732,12.15,15.685,13.466c0.426-0.018,0.852-0.036,1.278-0.054
				c2.095-1.707,4.261-3.277,5.878-5.56c1.675-2.366,2.597-4.862,2.534-7.703c-0.331-14.873-0.899-29.729-5.285-44.107
				c-0.893-2.927-2.211-5.724-3.333-8.581c-1.249,0.002-1.314,1.022-1.309,1.798c0.033,6.164,0.391,12.321,0.486,18.485
				c0.003,0.192,0.244,0.321,0.147,0.435c-0.501-0.644-0.374-1.476-0.527-2.226c-0.708-3.475-3.215-5.218-6.768-4.701
				c-0.738,0.107-1.46,0.303-2.191,0.451c-7.31,1.484-8.875,3.586-8.147,10.962c0.05,0.507,0.239,1.008-0.103,1.782
				c0.003,0.123-0.493-0.402-0.088-0.268c0.184,0.061,0.216-0.019,0.225-0.233c0.066-1.496-0.829-2.626-1.537-3.777
				c-5.473-8.893-9.219-18.451-11.306-28.679C764.711,911.098,764.671,909.549,763.047,908.964z"/>
			<path style="fill:#FAF1F3;" d="M862.897,510.896c0.201-0.01,0.402-0.022,0.602-0.037c-0.286-6.818-0.573-13.636-0.859-20.454
				c-0.197-0.002-0.393,0.001-0.59,0.009C860.627,493.441,861.227,507.961,862.897,510.896z"/>
			<path style="fill:#282424;" d="M677.227,988.798c-0.015,0.196,0.046,0.364,0.184,0.505c1.278-0.054,2.557-0.107,3.835-0.161
				C679.997,987.963,678.576,988.803,677.227,988.798z"/>
			<path style="fill:#EDE3E3;" d="M676.912,870.259c0.825-7.677,1.262-15.386,2.118-23.066c1.9-17.032,3.791-34.063,5.143-51.159
				c1.392-17.607,3.366-35.174,5.42-52.719c2.106-17.993,3.549-36.021,3.992-54.125c0.278-11.346,0.791-22.711,0.407-34.041
				c-0.48-14.142-0.565-28.31-2.197-42.418c-1.086-9.392-1.01-18.892-1.785-28.341c-1.26-15.377-1.107-30.857-2.773-46.224
				c2.567-0.838,3.183-0.506,3.529,2.068c0.383,2.844,0.005,5.753,0.681,8.585c1.557,7.078,2.082,14.331,3.766,21.382
				c0.421,1.764,0.796,3.538,1.5,5.212c0.544,1.294,1.172,2.692,2.869,2.562c1.753-0.134,2.084-1.655,2.281-3.036
				c0.256-1.789,0.511-3.582,0.6-5.396c0.066-1.332-0.564-3.414,0.86-3.737c1.749-0.396,1.86,1.867,2.527,3.091
				c0.253,0.464,0.381,0.993,0.583,1.487c1.367,3.347,2.293,6.888,4.289,9.958c0.824,1.267,1.778,2.62,3.554,2.105
				c1.735-0.504,1.964-2.114,1.975-3.643c0.019-2.556-0.07-5.109-0.605-7.63c-0.175-0.825-0.284-1.887,0.672-2.229
				c0.781-0.279,1.271,0.6,1.726,1.177c1.389,1.762,2.318,3.829,3.681,5.605c0.83,1.081,1.681,2.509,3.339,1.69
				c1.417-0.7,1.089-2.15,0.873-3.424c-0.533-3.156-1.423-6.228-2.185-9.331c-0.203-0.828-0.332-1.819,0.469-2.355
				c0.862-0.577,1.605,0.166,2.273,0.656c1.364,1,2.443,2.428,4.174,2.87c1.283,0.327,2.616,0.391,3.531-0.764
				c0.858-1.081,0.349-2.228-0.198-3.296c-0.538-1.051-1.294-1.953-2.055-2.844c-4.686-5.49-8.1-11.729-10.721-18.411
				c-0.805-2.053-1.838-4.118-1.279-6.459c0.566-1.24,1.789-1.383,2.897-1.728c4.748-1.479,6.332-3.621,6.373-8.632
				c0.038-4.712-0.882-9.326-1.531-13.961c-1.521-10.866-3.614-21.644-5.183-32.504c-0.565-3.912-0.005-4.506,3.998-5.179
				c3.682-0.619,7.416-0.769,11.09-1.402c10.394-1.791,20.849-3.276,31.351-4.063c19.753-1.481,39.611-1.122,59.345-3.185
				c3.898-0.408,4.81,0.349,6.19,4.084c6.167,16.689,12.604,33.299,14.699,51.168c0.947,8.076,0.571,16.128-0.023,24.193
				c-2.033,10.1-3.461,20.284-4.426,30.537c-0.03,0.318-0.023,0.624,0.002,0.924c-0.14,0.917-0.266,1.836-0.38,2.759
				c-0.087,0.705,0.008,1.4,0.267,2.006c-0.336,0.603-0.542,1.282-0.596,2.087c-0.358,5.379-0.761,10.758-1.317,16.12
				c-1.145,11.036-2.467,22.054-3.593,33.092c-1.632,15.991-3.549,31.953-5.961,47.837c-5.279,34.763-12.965,69.095-18.974,103.729
				c-2.377,13.697-6.519,26.978-9.061,40.642c-3.117,16.755-6.789,33.404-8.586,50.389c-0.209,1.978,0.55,4.718-2.266,5.841
				c-0.541,1.281-1.701,1.531-2.876,1.595c-6.017,0.326-12.035,0.793-18.062,0.647c-2.531-0.061-5.13-0.457-6.491-3.153
				c-1.522-2.398-2.266-4.988-2.24-7.858c0.056-6.15,0.724-12.256,1.11-18.381c0.46-7.293,0.862-14.608,2.108-21.791
				c2.898-16.711,4.633-33.533,5.806-50.437c0.865-12.454,1.913-24.897,2.997-37.335c1.074-12.328,2.427-24.634,3.416-36.969
				c1.135-14.16,1.492-28.379,1.327-42.564c-0.125-10.738,0.094-21.488-0.511-32.233c-0.858-15.221-1.332-30.464-1.958-45.698
				c-0.078-1.906,0.091-3.806,0.195-5.708c0.196-3.594-0.203-7.22-0.355-10.833c-2.575,5.243-4.648,10.468-6.18,15.848
				c-3.838,13.477-6.717,27.163-8.941,41.016c-2.904,18.088-5.573,36.209-8.326,54.319c-3.184,20.943-5.759,42.003-10.536,62.664
				c-6.937,30.005-15.767,59.536-22.717,89.542c-2.83,12.218-6.333,24.253-9.903,36.262c-1.558,5.242-1.856,11.242-7.114,14.758
				c-8.927,0.642-17.787,0.859-25.845-4.046C678.281,875.764,676.583,873.317,676.912,870.259z"/>
			<path style="fill:#EBC3CC;" d="M720.353,534.898c0.144-1.529,1.337-1.312,2.37-1.504c5.255-0.976,7.711-3.987,7.487-9.397
				c-0.36-8.698-1.953-17.237-3.446-25.792c-1.309-7.5-2.463-15.028-3.648-22.55c-0.187-1.188-0.246-2.376,1.535-2.509
				c13.105-0.978,25.978-3.725,39.07-4.959c18.258-1.721,36.581-1.661,54.849-2.85c3.7-0.241,7.393-0.652,11.075-1.099
				c1.949-0.237,2.84,0.56,3.506,2.349c5.108,13.723,10.48,27.392,13.365,41.78c1.637,8.163,3.239,16.463,1.985,24.941
				c-0.462,3.12,0.953,6.345-0.342,9.462c1.216,1.621,2.872,1.472,4.557,1.1c1.935-0.427,3.843-1.038,5.868-0.733
				c0.181-0.375,0.261-0.929,0.559-1.1c5.299-3.036,3.759-8.281,3.71-12.705c-0.069-6.149,0.246-12.293,0.045-18.437
				c-0.282-6.827-0.565-13.654-0.847-20.481c-1.1-13.74-3.134-27.342-5.431-40.935c-2.963-17.541-6.817-34.906-9.884-52.415
				c-1.569-8.961-2.783-18.094-2.501-27.239c0.234-7.606,1.167-15.191,1.819-22.783c0.761-8.857,1.832-17.678,2.893-26.503
				c0.432-3.587-1.519-7.055-4.959-9.039c-10.403-6-20.848-11.926-31.833-16.83c-3.678,1.148-7.522,1.591-11.222,2.639
				c-0.725,0.205-1.297,0.77-1.719,1.388c-3.042,4.453-6.922,8.08-11.188,11.312c-2.694,2.041-4.781,4.578-6.254,7.575
				c-3.464,7.046-8.591,12.681-14.737,17.414c-5.18,3.989-9.257,9.113-14.143,13.391c-3.153,2.76-4.775,2.482-7.229-1.016
				c-0.306-0.436-0.552-0.934-0.932-1.296c-9.891-9.439-16.96-21.341-26.885-30.76c-2.964-2.813-6.31-5.093-9.648-7.354
				c-3.634-2.461-6.722-5.593-10.37-7.993c-2.068-1.361-2.257-3.756-3.489-5.56c-10.294,8.808-19.595,18.612-28.487,28.796
				c-7.44,8.522-10.817,18.677-10.667,29.917c0.167,12.454,2.271,24.668,4.431,36.926c1.764,10.012,4.154,19.909,5.503,30.005
				c0.586,4.389,1.782,8.745,3.152,12.969c2.357,7.268,2.639,14.781,3.459,22.27c1.165,10.64,1.839,21.334,3.664,31.913
				c1.116,6.47,1.435,13.073,2.255,19.598c1.07,8.512,1.592,17.107,3.656,25.476c0.776,3.148,2.54,5.347,5.93,5.884
				c1.883-0.391,2.611,0.294,2.744,2.292c0.201,3.017-0.406,6.135,0.905,9.042c1.584-2.004,0.681-4.302,0.7-6.466
				c0.031-3.605,0.257-3.858,3.878-4.374c7.051-1.004,13.954-2.912,21.081-3.482C717.814,535.076,719.1,535.204,720.353,534.898z"/>
			<path style="fill:#EDE3E3;" d="M694.34,294.411c-0.256,2.719,0.975,4.708,3.074,6.276c4.753,3.553,9.424,7.22,14.273,10.637
				c6.777,4.776,11.906,11.169,17.186,17.371c4.669,5.484,8.44,11.72,14.064,16.411c1.105,0.922,1.816,2.337,2.638,3.572
				c1.914,2.874,4.616,3.204,7.173,0.948c5.093-4.495,9.335-9.882,14.751-14.037c4.235-3.249,8.493-6.689,11.147-11.273
				c3.923-6.777,8.023-13.131,14.656-17.682c2.362-1.621,4.462-3.991,5.835-6.69c1.445-2.842,4.346-2.6,6.669-2.912
				c2.404-0.323,4.462-0.946,6.35-2.36c-0.708-3.429-2.888-5.82-5.547-7.875c-5.14-3.973-9.378-8.93-14.308-13.127
				c-1.492-1.271-1.399-2.09,0.178-3.116c3.827-2.489,7.663-4.972,11.394-7.601c8.377-5.905,14.392-13.436,15.951-23.905
				c0.661-4.442-0.685-8.68-1.852-12.807c-4.431-15.676-10.278-30.836-18.331-45.026c-5.084-8.959-12.053-16.336-22.615-18.214
				c-8.283-1.473-16.624-3.317-25.178-2.847c-2.641,0.145-5.267,0.118-7.94-0.145c-4.849-0.476-9.353,0.945-13.684,3.322
				c-9.499,5.214-15.728,13.159-20.878,22.503c-3.788,6.873-7.927,13.548-11.319,20.654c-2.629,5.505-3.077,11.476-3.799,17.316
				c-0.93,7.52-1.94,15.108,0.583,22.66c2.032,6.083,5.408,11.301,9.477,16.068c1.467,1.718,1.227,3.167,0.891,4.898
				c-1.671,8.616-4.455,16.792-9.468,24.103C695.118,292.397,694.791,293.446,694.34,294.411z"/>
			<path style="fill:#BB7F70;" d="M705.008,882.507c-3.133-1.256-6.436-0.374-9.654-0.664c-5.227-0.472-10.365-0.813-15.008-3.577
				c-0.263-0.156-0.783,0.12-1.183,0.195c-4.273,11.83-7.539,23.935-9.941,36.277c1.928,0.223,1.159,1.776,1.222,2.747
				c0.427,6.581,0.356,13.201,1.577,19.718c0.233,1.243,0.562,2.468,0.942,4.116c1.432-4.003,2.584-7.63,4.023-11.138
				c1.644-4.008,3.868-5.079,8.435-4.491c3.522,0.453,5.004,1.983,5.509,6.284c0.492,4.199,0.539,8.449,1.555,13.269
				c3.445-7.69,5.916-15.081,7.003-22.868c0.966-6.92,1.422-13.919,3.627-20.619C702.975,895.263,704.203,888.905,705.008,882.507z"
				/>
			<path style="fill:#BB7F70;" d="M794.26,878.815c-7.992,1.433-16.035,1.728-24.095,0.822c-1.161-0.131-2.225-1.133-3.333-1.732
				c-1.865,10.28-2.945,20.655-3.784,31.059c1.239,4.472,2.558,8.923,3.7,13.42c2.2,8.662,7.246,15.907,11.751,23.542
				c0.007-1.633-0.027-3.268,0.037-4.899c0.042-1.056,0.101-2.14,0.372-3.153c1.488-5.572,6.715-3.761,10.318-4.922
				c2.441-0.786,4.07,1.228,4.812,3.609c0.372,1.193,0.738,2.387,1.326,4.29c1.15-6.794,0.221-12.846,0.174-18.89
				c-0.01-1.208-0.608-2.556,0.555-3.6c0.036-8.684-1.469-17.269-1.651-25.938C794.348,887.887,794.319,883.35,794.26,878.815z"/>
			<path style="fill:#BB7F70;" d="M858.583,543.138c-0.419-1.807-1.619-1.143-2.741-0.908c-2.533,0.531-5.022,1.807-7.684,0.541
				c-1.836,10.112-3.491,20.256-4.29,30.508c-0.116,1.493-1.371,4.142,1.964,4.344c3.097-2.225,3.176-6.067,4.614-9.118
				C854.244,560.446,856.855,551.911,858.583,543.138z"/>
			<path style="fill:#BB7F70;" d="M720.353,534.898c-2.623-2.139-5.458-0.401-8.064-0.15c-6.4,0.618-12.598,2.685-19.046,3.186
				c-2.104,0.163-2.944,1.099-2.715,3.3c0.285,2.738,0.254,5.508,0.359,8.264c1.18,8.097,2.118,16.243,4.336,24.145
				c0.661,2.353,0.98,5.648,4.336,5.455c3.48-0.2,3.138-3.428,3.368-5.924c0.212-2.293,0.363-4.592,0.617-7.865
				c1.504,3.922,2.653,7.059,3.913,10.151c0.801,1.967,1.675,3.917,2.684,5.784c0.895,1.656,2.178,3.083,4.33,2.484
				c2.225-0.619,2.76-2.532,2.739-4.541c-0.034-3.272-0.055-6.558-0.662-9.912c1.589,2.474,3.166,4.956,4.771,7.42
				c1,1.535,2.326,2.789,4.227,1.844c1.811-0.901,1.793-2.642,1.338-4.462c-0.945-3.777-1.776-7.582-2.687-11.518
				c1.444,0.364,2.059,1.451,2.924,2.187c2.866,2.438,6.219,3.221,7.712,1.437c2.369-2.831,0.113-5.023-1.561-6.973
				c-5.776-6.73-9.859-14.359-12.589-22.754C720.519,535.955,720.46,535.419,720.353,534.898z"/>
			<path style="fill:#BB7F70;" d="M791.872,222.147c-0.951-8.244-3.405-15.607-5.823-22.983c-2.152-6.566-4.293-13.137-6.356-19.731
				c-0.901-2.88-2.301-5.545-3.948-7.976c-1.953-2.884-5.366-1.81-7.859-1.284c-11.261,2.377-20.597,8.328-27.199,17.674
				c-4.894,6.927-9.898,13.81-13.956,21.369c-8.82,16.425-6.116,39.137,11.779,50.902c4.803,3.158,9.521,6.446,14.262,9.697
				c7.826,5.367,15.756,4.69,21.186-3.167c7.683-11.117,14.25-22.976,17.185-36.405C791.75,227.467,791.672,224.542,791.872,222.147
				z"/>
			<path style="fill:#9C4051;" d="M762.35,255.123c1.06-0.28,2.336-0.486,3.505-0.958c1.5-0.606,3.557-0.841,3.806-2.818
				c0.178-1.413-4.224-3.697-5.776-3.875c-3.219-0.37-6.113,0.291-9.007,1.58c-1.234,0.55-1.434,0.947-0.613,2.043
				C756.255,253.755,758.943,254.933,762.35,255.123z"/>
			<path style="fill:#A76859;" d="M762.322,240.751c3.531-1.999,5.605-6.119,3.966-9.189c-2.117-3.967-3.773-8.012-4.614-12.411
				c-0.133-0.698-0.141-1.682-1.189-1.521c-1.004,0.153-0.795,1.109-0.772,1.821c0.106,3.225,0.939,6.325,2.36,9.156
				c1.865,3.718,1.887,7.295,0.183,10.989C762.077,239.984,761.94,240.387,762.322,240.751z"/>
			<path style="fill:#292321;" d="M735.1,200.907c6.046-0.482,12.063-1.66,18.34-0.207
				C751.05,196.494,741.826,196.578,735.1,200.907z"/>
			<path style="fill:#272220;" d="M783.761,205.962c-2.757-3.482-5.722-4.668-9.026-5.127c-1.141-0.159-2.617-0.15-2.803,1.337
				c-0.22,1.76,1.416,1.018,2.288,1.255C777.123,204.214,780.034,204.974,783.761,205.962z"/>
			<path style="fill:#2B2523;" d="M771.261,220.985c0.218,1.261,0.993,1.834,2.214,1.681c1.084-0.137,1.679-0.85,1.618-1.946
				c-0.068-1.242-0.799-1.932-2.047-1.85C771.783,218.954,771.242,219.768,771.261,220.985z"/>
			<path style="fill:#2E2624;" d="M742.448,221.455c1.215-0.151,1.924-0.82,1.817-2.072c-0.106-1.237-0.906-1.874-2.132-1.757
				c-1.083,0.103-1.67,0.817-1.661,1.909C740.483,220.8,741.181,221.426,742.448,221.455z"/>
		</g>
	</g>
	<g>
		<g>
			<g id="cPWrMh_2_">
				<g>
					<path style="fill:#B47565;" d="M369.617,257.514c0.7,0.529,1.359,1.095,1.939,1.733c1.965,2.162,3.191,3.034,6.331,3.162
						c6.998,0.287,13.774-2.498,19.757-5.866c3.158-1.778,6.146-3.857,9.21-5.801c-0.968,8.533,1.629,16.844,1.583,25.323
						c-0.012,2.18,1.063,4.003,2.222,5.764c-3.323,0.048-6.042,1.926-9.006,3.031c-8.484,3.165-17.206,4.471-26.233,3.74
						c-0.035-5.558-2.164-10.554-4.466-15.418c-1.447-3.057-3.776-5.621-5.319-8.683c-1.625-3.224-2.811-6.67-3.501-10.215
						c-0.063-0.325-0.114-0.691,0.078-0.961c0.4-0.562,1.275-0.139,1.807,0.3C365.739,255.047,367.816,256.154,369.617,257.514z"/>
					<path style="fill:#242C42;" d="M304.164,601.194c-4.368-0.99-8.85-0.627-13.265-1.095c-1.482-0.157-2.83-0.244-3.459-1.85
						c-0.817-1.464,0.075-3.248-0.879-4.685c-0.026-0.441-0.053-0.883-0.079-1.324c0.413-2.019,0.294-4.005-0.357-5.96
						c-0.066-1.104-0.132-2.207-0.198-3.311c0.875-6.457,0.306-12.954,0.447-19.428c0.331-15.251,1.46-30.399,4.254-45.404
						c0.19-0.525,0.483-1.272,0.941-1.281c4.37-0.091,7.25-3.422,10.957-4.934c2.002,0.528,2.02,2.133,2.033,3.739
						c-0.027,0.32-0.073,0.644-0.171,0.955c-1.31,4.143-1.311,4.142,2.382,6.126c1.581,2.377,1.639,5.228,2.431,7.847
						c3.992,13.209,6.731,26.687,8.94,40.308c1.562,9.63,6.654,17.652,13.002,24.896c1.671,1.907,3.35,3.808,4.963,5.764
						c1.529,1.854,1.162,2.967-1.33,3.168c-8.534-1.911-17.284-1.323-25.903-2.239C307.23,602.31,305.573,602.209,304.164,601.194z"
						/>
					<path style="fill:#222C51;" d="M286.124,586.279c1.207,1.922,1.309,3.909,0.357,5.96
						C286.362,590.252,286.243,588.266,286.124,586.279z"/>
					<path style="fill:#222C51;" d="M286.56,593.563c1.388,1.356,0.573,3.126,0.879,4.685c-0.201-0.008-0.402-0.024-0.602-0.05
						C286.746,596.654,286.653,595.109,286.56,593.563z"/>
					<path style="fill:#ECE3E2;" d="M401.594,982.769c-0.024-0.207-0.05-0.413-0.076-0.619c1.271-1.232,2.617-1.303,4.035-0.26
						c-0.002,0.214,0.003,0.427,0.015,0.641C404.243,982.61,402.919,982.69,401.594,982.769z"/>
					<path style="fill:#603B37;" d="M301.842,280.801c-2.204-11.951,0.797-22.497,8.464-31.847
						c7.865-9.592,12.781-20.482,14.788-32.793c1.82-11.166,6.912-21.111,12.596-30.755c1.25-2.12,3.064-3.753,4.846-5.412
						c13.094-12.188,27.646-22.297,43.552-30.452c4.931-2.528,9.877-3.11,14.527,0.774c1.177,0.983,2.677,1.002,4.068,1.222
						c8.283,1.311,14.55,5.66,19.838,12.083c10.719,13.023,16.902,28.056,22.288,43.907c4.315,12.7,5.467,25.473,5.581,38.437
						c0.096,10.955,0.563,21.865,1.606,32.73c0.878,9.154,4.133,17.387,12.408,22.715c2.183,1.406,3.854,3.309,4.441,5.961
						c0.838,2.754-0.695,3.884-3.06,4.292c-3.229,0.557-6.364-0.081-9.442-1.028c-11.096-3.414-21.476-8.563-31.985-13.372
						c-7.238-3.312-12.25-9.209-16.737-15.585c-1.185-1.507-1.943-3.218-2.063-5.114c-0.396-6.228-0.928-12.439-1.844-18.616
						c-0.324-2.182-0.028-4.372,0.31-6.537c0.911-6.503,3.151-12.629,5.445-18.734c3.381-8.996,7.012-17.893,9.039-27.354
						c2.737-12.773,0.352-24.337-7.697-34.64c-3.474-4.447-7.406-8.471-11.71-12.154c-1.624-1.39-2.849-1.418-4.711-0.498
						c-4.836,2.391-8.739,5.837-12.531,9.61c-8.008,7.969-15.64,16.184-21.775,25.757c-5.552,8.663-6.696,18.263-7.308,28.184
						c-0.298,4.83,0.879,10.119,1.944,14.784c2.048,8.967,9.636,15.315,11.173,24.349c0.316,1.855,0.326,3.757,0.717,5.598
						c0.814,3.833,3.362,6.774,4.648,10.357c1.411,3.928,2.484,7.378,2.918,11.526c1.102,10.539-2.203,20.025-6.912,29.203
						c-2.671,5.205-5.257,10.456-7.594,15.822c-2.064,4.738-2.941,9.677-2.55,14.862c0.408,5.395,0.547,10.812,1.014,16.201
						c0.976,11.27-1.916,21.438-8.43,30.611c-3.009,4.237-5.843,8.575-8.293,13.161c-0.52,0.973-1.082,1.927-1.733,2.821
						c-0.886,1.217-1.971,2.161-3.592,1.916c-1.619-0.245-2.35-1.457-2.865-2.886c-1.023-2.834-1.269-5.837-1.697-8.764
						c-1.033-7.068-4.432-12.868-8.929-18.175c-4.079-4.813-8.835-8.948-13.375-13.296c-5.706-4.334-10.241-9.571-12.654-16.444
						c-3.206-7.872-1.655-15.644,0.63-23.34c1.946-6.554,4.548-12.92,5.747-19.687c1.488-8.396,1.69-16.7-2.254-24.603
						C301.927,284.068,301.872,282.444,301.842,280.801z"/>
					<path style="fill:#F4D1D9;" d="M410.658,281.829c5.764,8.1,13.062,13.992,22.484,17.708c8.18,3.226,16.101,7.13,24.478,9.914
						c2.842,0.945,5.704,1.604,8.722,1.644c2.633,0.034,4.197-1.035,4.503-3.723c4.075,5.233,6.422,11.247,7.604,17.688
						c0.95,5.178,1.832,10.407,2.164,15.65c0.276,4.354-0.144,8.775-0.531,13.142c-0.398,4.497-0.668,8.965-0.424,13.489
						c0.189,3.492,0.197,7.068-2.047,10.124c-1.761,1.495-3.803,1.069-5.7,0.597c-9.423-2.346-19.391-2.03-28.51-5.851
						c-1.449-0.607-2.325,0.014-2.701,1.474c-0.11,0.429-0.235,0.856-0.289,1.294c-1.339,10.96-4.077,21.702-4.731,32.784
						c-0.289,4.903-1.178,9.74-2.196,14.537c-0.774,3.651-0.952,10.239-2.944,13.346c-1.771,2.762-7.695,4.608-10.615,5.861
						c-3.953,1.696-8.027,3.094-12.105,4.454c-6.84,2.281-14.771,7.027-21.901,5.668c-17.598-3.353-34.861-8.288-52.531-11.284
						c-4.334-0.735-8.572-2.121-12.793-3.425c-1.816-0.561-3.544-1.302-4.477-3.156c-1.499-3.968-1.994-8.172-2.272-12.314
						c-0.606-9.025-1.69-17.975-2.874-26.938c-1.009-7.637-0.083-15.411-0.764-23.107c-0.087-0.981-0.19-2.301,1.358-2.574
						c5.354,5.091,10.897,9.97,15.535,15.796c4.635,5.822,6.984,12.421,7.868,19.684c0.213,1.747,0.66,3.465,0.933,5.206
						c0.203,1.301,0.699,2.408,2.053,2.708c1.395,0.309,2.279-0.601,2.929-1.702c1.683-2.849,3.265-5.76,5.023-8.562
						c2.638-4.204,5.53-8.254,8.067-12.516c4.301-7.226,5.859-15.167,5.444-23.507c-0.318-6.396-0.688-12.791-1.147-19.178
						c-0.434-6.042,1.259-11.536,3.864-16.877c3.384-6.938,6.874-13.836,9.919-20.923c2.769-6.446,4.055-13.275,3.366-20.361
						c0.688-0.896,1.67-1.031,2.678-0.938c9.616,0.886,18.517-1.827,27.277-5.334C407.051,281.656,408.757,280.47,410.658,281.829z"
						/>
					<path style="fill:#242C42;" d="M386.476,607.483c-2.401-0.802-4.883-1.193-7.389-1.461c-0.611,0.339-1.283,0.403-1.927,0.232
						c-4.851-1.291-9.805-1.351-14.773-1.273c-2.438-0.927-5.212,0.785-7.548-0.944c0.09-4.685-2.627-8.272-4.73-12.108
						c-0.562-1.026-1.636-2.207-0.679-3.318c1.098-1.276,2.461-0.234,3.632,0.257c1.943,0.815,3.553,2.237,5.458,3.128
						c1.018,0.476,2.122,0.869,3.103-0.023c0.976-0.887,0.668-1.979,0.329-3.075c-1.06-3.428-1.044-3.433,2.397-4.229
						c3.586-0.83,4.481-2.95,2.507-6.057c-1.07-1.684-2.434-3.148-3.759-4.627c-5.615-6.267-10.432-13.15-15.441-19.885
						c-3.79-5.097-6.576-10.701-8.566-16.74c-3.113-9.441-6.547-18.782-8.294-28.619c-0.271-1.526-0.724-3.026,0.033-4.537
						c4.582-3.893,10.083-6.278,15.217-9.264c8.583-4.991,17.968-7.546,27.535-10.048c12.476-3.263,25.242-5.532,37.402-9.929
						c7.671-2.774,15.696-3.465,23.634-4.685c6.224-0.956,11.911-3.163,17.265-6.397c1.09-0.658,2.095-1.712,3.594-1.334
						c3.275,6.834,4.404,14.308,5.982,21.581c3.548,16.352,7.191,32.691,10.491,49.087c2.449,12.168,4.275,24.534,5.027,36.984
						c0.445,7.379,1.206,14.724,2.273,22.031c0.53,3.63-0.78,6.12-3.695,8.162c-3.736,2.618-7.748,4.612-12.05,6.069
						c-1.046,1.182-2.366,1.959-3.796,2.578c-4.046,1.75-8.141,3.386-12.265,4.937c-3.54,1.332-5.35,0.404-6.636-3.16
						c-1.853-5.138-2.224-10.588-2.756-15.915c-0.902-9.032-3.092-17.786-4.766-26.652c-0.408-2.162-1.023-4.29-1.073-6.505
						c-0.032-0.6-0.021-1.197-0.089-1.116c-0.036,0.108,0.084,0.921,0.058,1.712c-0.626,3.937-1.786,7.737-2.984,11.516
						c-2.605,8.216-4.761,16.514-5.418,25.153c-0.217,2.853-0.7,5.69-1.168,8.517c-0.707,4.273-2.155,5.359-6.317,4.464
						c-3.496-0.752-7.029-0.349-10.539-0.591c-5.642-0.39-11.115-1.636-16.646-2.61C388.104,608.61,387.235,608.155,386.476,607.483
						z"/>
					<path style="fill:#BB7E70;" d="M432.745,560.94c2.98,14.193,6.121,28.354,7.36,42.852c0.204,2.382,1.04,4.713,1.63,7.057
						c0.689,2.735,2.35,3.516,4.966,2.441c5.592-2.298,11.2-4.557,16.8-6.831c-8.096,28.352-15.672,56.824-19.206,86.183
						c-1.631,13.543-1.854,27.046,1.28,40.503c1.562,6.705,0.424,13.658,0.653,20.495c0.485,14.474-0.375,28.9-2.607,43.219
						c-3.604,23.116-7.385,46.213-9.921,69.471c-1.397,12.815-1.943,25.726-2.761,38.601c-0.406,6.397-1.008,12.755-2.336,19.032
						c-1.235,4.698-3.065,9.188-4.939,13.65c-1.077,2.563-1.566,5.278-2.471,7.875c-0.246,0.706-0.604,1.606-1.475,1.559
						c-0.919-0.049-1.105-1.014-1.202-1.757c-0.299-2.299-0.963-4.531-1.231-6.831c-0.289-2.486-1.695-3.712-4.128-3.891
						c-1.319-0.097-2.63-0.284-3.948-0.395c-2.739-0.23-4.666,0.82-5.739,3.444c-0.959,2.346-1.911,4.701-3.024,6.978
						c-0.498,1.019-0.826,2.711-2.318,2.314c-1.406-0.375-1.673-1.974-1.578-3.338c0.275-3.957,0.049-7.933,0.474-11.88
						c0.494-4.59,0.633-9.196,0.706-13.806c6.221-16.566,8.931-33.587,7.101-51.299c-0.77-7.456-0.972-14.963-1.201-22.474
						c-0.35-11.454-1.869-22.871-2.893-34.304c-0.256-2.861-0.662-5.717-0.756-8.583c-0.676-20.552-3.32-40.937-5.085-61.397
						c-1.083-12.559-0.662-25.137-0.321-37.713c0.648-23.866,0.159-47.698-2.959-71.396c-1.034-7.859-2.982-15.588-5.141-23.235
						c3.252,0.565,6.524,1.035,9.751,1.715c5.096,1.073,10.24,1.433,15.43,1.437c1.422,0.001,2.883,0.034,4.259,0.349
						c4.648,1.061,5.41,0.747,5.786-4.217c1.174-15.516,5.676-30.279,9.888-45.115C431.865,561.234,431.974,560.548,432.745,560.94z
						"/>
					<path style="fill:#C58778;" d="M455.474,462.546c-7.637,5.702-16.303,8.751-25.726,9.41
						c-10.591,0.741-20.318,4.829-30.452,7.333c-10.569,2.612-21.113,5.328-31.703,7.847c-8.239,1.96-15.756,5.579-23.102,9.62
						c-4.537,2.496-8.985,5.152-13.473,7.736c-1.153,2.401-3.745,2.904-5.68,4.26c-5.372,3.765-11.155,6.964-15.647,11.913
						c-0.868,0.956-1.801,2.311-3.521,1.986c-4.357-0.127-4.78-1.371-2.237-6.576c0.401-1.542,0.137-3.259,1.264-4.753
						c-1.015,0.324-1.958,0.605-2.906,0.872c-3.067,2.894-6.237,5.569-10.875,5.133c-0.185-2.304,0.327-4.447,1.457-6.451
						c1.328-3.125,3.708-5.493,5.8-8.067c0.387-0.464,0.715-0.977,1.211-1.48c-0.487,0.287-0.665,0.726-0.971,1.049
						c-2.363,2.286-3.64,5.598-6.767,7.16c-1.616,1.434-3.117,3.031-4.874,4.263c-2.746,1.927-4.492,1.021-5.044-2.391
						c2.964-3.716,5.928-7.432,8.893-11.148c-0.285-0.977-0.627,0.059-0.937-0.026c-2.085,0.803-4.481,2.653-6.242,0.166
						c-1.856-2.621,0.519-4.345,2.303-6.024c2.238-2.104,4.27-4.44,6.607-6.421c1.51-1.281,2.123-2.649,1.855-4.521
						c1.387,0.186,2.53-0.268,3.627-1.14c7.938-6.307,17.228-9.08,27.114-10.281c8.076-0.798,16.297-0.046,24.203-2.644
						c4.523-1.486,8.709-3.677,13.02-5.606c2.72-1.217,5.451-2.344,8.338-3.071c4.565-1.409,8.692-3.742,12.809-6.097
						c5.748-3.289,11.876-4.779,18.063-7.126c7.405-2.809,14.809-5.617,22.214-8.426c5.015-1.902,5.988-4.567,6.967-9.493
						c0.862-4.336,1.6-8.696,2.268-13.066c1.273-8.323,2.28-16.684,3.372-25.033c0.794-6.067,2.116-12.113,3.062-18.192
						c0.351-2.258,0.994-3.364,3.619-2.103c8.109,3.897,17.204,3.367,25.732,5.44c2.776,0.675,5.595,1.255,8.495,0.867
						c0.186,6.65-0.953,13.182-2.226,19.637c-2.795,14.166-4.288,28.51-6.232,42.789
						C467.838,449.549,463.697,457.205,455.474,462.546z"/>
					<path style="fill:#F4D1D9;" d="M302.539,322.639c4.986-14.055,6.604-28.008-0.697-41.837c-2.148,2.737-5.165,4.405-7.93,6.364
						c-4.928,3.493-9.524,7.246-11.175,13.415c-0.852,3.184-1.344,6.466-2.246,9.634c-3.649,12.807-7.159,25.393-9.031,38.551
						c-0.028,0.194-0.051,0.41,0.06,0.572c0.117,0.171,0.341,0.222,0.544,0.261c3.566,0.677,7.157,1.217,10.582,2.357
						c3.083,1.027,7.034,2.095,10.331,1.897c2.111,0.118,4.314,0.86,6.355-0.4c-0.839-3.732-1.9-7.358-1.58-11.336
						C298.299,335.329,300.297,328.957,302.539,322.639z"/>
					<path style="fill:#DECDCC;" d="M397.731,917.884c1.311,2.253,0.936,4.678,0.777,7.101c-0.411,6.253-0.774,12.509-1.141,18.765
						c-0.06,1.018,0.224,1.955,1.092,3.229c1.529-3.58,3.017-6.823,4.299-10.146c1.031-2.671,2.923-3.762,5.643-3.615
						c1.976,0.107,3.955,0.25,5.917,0.5c2.397,0.305,3.663,1.708,3.932,4.159c0.311,2.839,0.796,5.66,1.446,8.592
						c2.494-7.694,5.048-15.368,8.909-22.508c0.537,6.123-0.974,12.02-2.084,17.944c-1.772,9.453-4.915,18.53-7.998,27.609
						c-2.149,6.329-6.101,10.919-12.97,12.375c-1.344,0.086-2.689,0.173-4.034,0.26c-7.547-1.33-12.813-8.702-11.864-17.245
						c0.58-5.222,0.111-10.554,0.254-15.833c0.268-9.929,3.723-19.196,6.15-28.672C396.303,919.443,396.16,918.038,397.731,917.884z
						"/>
					<path style="fill:#BB7E70;" d="M362.337,604.214c5.708-0.548,11.307-0.098,16.75,1.807c-4.301,16.693-7.67,33.577-9.113,50.758
						c-0.939,11.179-1.872,22.388-0.008,33.647c0.822,4.962,0.206,10.144,0.596,15.198c1.115,14.424,2.48,28.829,3.615,43.251
						c1.009,12.813-0.121,25.571-1.271,38.324c-1.227,13.614-2.308,27.216-2.034,40.932c0.209,10.477-0.415,20.982,0.879,31.414
						c1.019,8.212,2.755,16.408,2.563,24.666c-0.247,10.626,2.752,20.99,1.95,31.606c-2.865,7.193-6.255,14.107-10.798,20.413
						c-0.451,0.626-0.811,1.324-1.351,1.879c-0.602,0.619-1.185,1.467-2.201,1.119c-0.833-0.285-0.867-1.19-1.058-1.929
						c-1.363-5.268-3.415-7.124-8.776-7.797c-1.749-0.219-3.51-0.38-5.268-0.544c-1.074-0.1-2.375-0.241-1.781-1.965
						c4.667-17.198,4.677-34.506,2.616-52.154c-1.976-16.917-8.931-32.24-13.31-48.368c-4.593-16.916-8.185-34.047-11.17-51.346
						c-2.729-15.808-4.861-31.609-5.2-47.641c-0.208-9.82-0.284-19.643-0.518-29.463c-0.272-11.434-2.44-22.562-5.672-33.502
						c-2.01-6.804-2.447-13.881-3.511-20.839c-2.152-14.077-3.341-28.266-4.104-42.488c10.27,1.254,20.746,0.269,30.898,2.827
						c2.805-0.215,5.618,1.059,8.42-0.059c1.895-0.305,3.792-0.45,5.703-0.172C353.557,604.355,357.95,604.181,362.337,604.214z"/>
					<path style="fill:#DECDCC;" d="M345.034,926.994c0.18,1.429,1.222,1.223,2.225,1.239c2.408,0.039,4.814,0.176,7.156,0.815
						c4.913,1.341,7.854,4.237,7.602,9.886c3.919-4.61,7.095-9.499,9.677-14.766c0.915-1.866,1.554-3.865,2.335-5.798
						c0.447-1.105,0.715-2.382,2.237-2.551c1.97,3.018,0.404,6.199,0.201,9.23c-0.447,6.656-3.728,12.383-7.114,17.935
						c-4.362,7.151-8.329,14.508-11.774,22.128c-3.845,8.504-10.419,13.861-19.079,16.56c-8.177,2.549-15.244-4.677-13.031-13.233
						c2.365-9.147,6.59-17.501,11.954-25.255c1.47-2.125,2.624-4.303,3.062-6.853C341.095,932.78,342.675,929.696,345.034,926.994z"
						/>
					<path style="fill:#B47667;" d="M343.258,604.678c-2.92,2.12-5.473-0.33-8.196-0.657c1.662-0.063,1.845-0.412,0.619-1.734
						c-4.648-5.011-9.113-10.15-12.667-16.067c-3.77-6.277-5.799-13.073-6.756-20.211c-1.746-13.028-5.192-25.65-8.759-38.253
						c-0.479-1.692-0.888-3.404-1.33-5.106c7.353-7.326,15.844-13.093,24.849-18.159c3.583,17.671,7.485,35.249,18.201,50.312
						c5.056,7.107,10.371,14.035,16.164,20.574c0.073,0.083,0.161,0.154,0.227,0.241c1.691,2.251,4.444,4.302,3.121,7.511
						c-1.217,2.953-4.399,2.404-7.021,2.669c-0.123,1.399,0.967,2.201,1.391,3.279c0.542,1.375,0.448,2.624-0.554,3.697
						c-1.049,1.124-2.3,1.091-3.645,0.479c-3.089-1.405-5.619-3.887-9.921-5.068c1.952,3.445,3.527,6.234,5.113,9.017
						c1.119,1.963,2.125,3.933,0.835,6.216c-1.024,1.741-2.578,1.046-4.016,0.877c-3.86-1.629-5.671-5.371-8.418-8.08
						C342.669,598.991,345.217,601.636,343.258,604.678z"/>
					<path style="fill:#B37668;" d="M302.291,512.195c1.284-0.942,2.568-1.884,4.323-3.171c-0.283,3.039-2.092,4.822-2.681,7.052
						C303.703,514.647,304.233,512.898,302.291,512.195z"/>
					<path style="fill:#B47667;" d="M279.641,357.403c-0.104-6.613-0.074-6.767,6.38-5.526c4.416,0.85,8.862,1.166,13.312,1.574
						c2.706,6.218,6.66,11.443,12.234,15.38c-0.535,0.349-0.597,0.891-0.548,1.447c1.06,12.012,0.031,24.178,2.715,36.075
						c0.383,1.7,0.382,3.498,0.455,5.255c0.318,7.59,1.178,15.111,2.726,22.551c2.18,2.157,1.735,5.089,2.265,7.727
						c0.735,3.657,1.177,7.368,1.982,11.012c0.125,3.984,1.667,7.647,2.586,11.452c0.682,2.826,2.123,5.539,1.439,8.598
						c-10.1,1.142-19.421,4.276-27.387,10.807c-1.233,1.011-2.263,1.753-3.094-0.322c-3.473-26.333-8.179-52.512-9.044-79.161
						c-0.26-8.015-2.072-15.943-3.525-23.859c-0.378-2.056-0.657-4.142-0.809-6.226
						C280.919,368.578,280.748,362.944,279.641,357.403z"/>
					<path style="fill:#2C3253;" d="M299.231,503.075c-2.3,2.453-3.708,5.633-6.358,7.802c-0.73-0.181-0.702-0.774-0.727-1.338
						c2.07-2.563,4.14-5.128,6.211-7.691C299.597,501.58,299.327,502.389,299.231,503.075z"/>
					<path style="fill:#BB7F70;" d="M367.799,258.548c-2.285-2.181-4.248-4.724-5.603-6.745c-3.902-5.819-7.161-12.697-8.212-19.654
						c-0.676-4.481,0.07-9.47,0.126-14.008c0.238-19.349,11.349-33.021,24.069-45.833c2.098-2.113,4.452-4.032,6.24-6.381
						c3.422-4.497,8.413-6.648,13.007-9.429c1.127-0.682,1.857-0.818,3.073,0.294c4.236,3.873,8.457,7.732,12.101,12.194
						c8.615,10.549,11.644,22.445,8.919,35.826c-2.325,11.419-7.098,22.011-10.977,32.904c-1.519,4.266-2.66,8.628-3.687,13.027
						c-2.009,3.103-5.388,4.453-8.339,6.256c-6.611,4.041-13.892,6.527-21.705,6.301C373.67,263.21,370.508,261.134,367.799,258.548
						z"/>
					<path style="fill:#BB7C6C;" d="M320.689,453.244c-1.932-4.23-1.866-8.882-2.725-13.333c-0.367-1.905-0.422-3.88-1.048-5.75
						c6.255,3.47,13.23,4.88,20.094,6.004c14.345,2.349,28.275,6.469,42.511,9.229c3.648,0.707,7.277,1.515,10.915,2.277
						c-6.054,3.717-12.172,7.312-18.856,9.819c-15.785,0.617-30.981-3.349-46.343-5.998
						C323.577,455.205,321.643,455.117,320.689,453.244z"/>
					<path style="fill:#6B535E;" d="M350.933,603.691c1.384,0.667,2.724,0.681,3.998-0.272c2.319,1.663,5.052-0.536,7.406,0.795
						c-4.46,0.323-8.906,1.152-13.395,0.337C349.336,603.641,350.315,604.084,350.933,603.691z"/>
					<path style="fill:#755A61;" d="M432.745,560.94c-0.385,0.237-0.771,0.473-1.156,0.71c-0.078-0.868,0.072-1.648,0.85-2.183
						C432.541,559.958,432.643,560.449,432.745,560.94z"/>
					<path style="fill:#242C42;" d="M320.689,453.244c7.735,2.214,15.666,3.348,23.582,4.707c9.075,1.559,18.214,2.312,27.309,3.538
						c-5.138,1-9.659,3.607-14.274,5.824c-7.08,3.402-14.404,5.141-22.227,5.139c-3.297-0.001-6.593,0.322-9.89,0.498
						c-1.625-5.862-3.26-11.722-4.865-17.591C320.125,454.635,319.977,453.846,320.689,453.244z"/>
					<path style="fill:#B2776A;" d="M299.231,503.075c-0.143-0.515-0.217-1.08-0.875-1.228c0.9-0.837,1.799-1.674,2.699-2.51
						C300.762,500.849,300.346,502.162,299.231,503.075z"/>
					<path style="fill:#242C42;" d="M350.933,603.691c-0.416,0.859-1.326,0.576-1.99,0.86c-1.896,0.043-3.791,0.086-5.685,0.128
						c0.428-3.714-1.764-6.936-2.142-11.02C344.8,597.026,347.014,601.22,350.933,603.691z"/>
					<path style="fill:#DB96BE;" d="M375.002,238.571c0.187,0.128,0.379,0.263,0.589,0.395c0.946,0.594,1.641-0.556,2.723-0.771
						c3.405-0.678,5.946,2.614,9.257,2.382c0.101,0.259-0.085,0.536-0.273,0.74c-2.696,2.922-7.052,5.878-11.228,5.149
						c-1.871-0.327-3.729-1.783-4.828-3.297c-0.432-0.594-0.877-1.185-1.237-1.827c-0.357-0.637-1.283-1.78-1.15-2.551
						c0.926-0.096,1.848-0.015,2.741-0.342c0.381-0.139,0.744-0.328,1.135-0.433C373.737,237.747,374.329,238.109,375.002,238.571z"
						/>
					<path style="fill:#AA6B5C;" d="M381.399,229.947c-0.334-0.306-0.796-0.686-0.898-0.749c-0.615-0.38-1.136-0.894-1.636-1.41
						c-1.057-1.092-1.891-2.424-2.119-3.948c-0.385-2.571,1.041-4.964,2.698-6.802c1.841-2.041,3.325-4.268,4.459-6.749
						c0.557-1.218,1.484-2.282,2.055-3.518c0.292-0.631,0.549-1.278,0.771-1.937c0.111-0.33,0.65-1.48,0.509-1.795
						c0.462,1.037,0.346,2.236,0.102,3.345c-0.754,3.429-2.626,6.528-4.89,9.211c-0.811,0.961-1.678,1.88-2.381,2.924
						c-0.435,0.646-0.786,1.281-1.261,1.89c-0.651,0.836-1.189,1.389-1.209,2.477c-0.02,1.066,0.183,2.186,0.871,3.033
						c0.974,1.198,3.71,2.178,3.464,4.101c-0.016,0.13-0.067,0.271-0.185,0.327C381.79,230.326,381.623,230.153,381.399,229.947z"/>
					<path style="fill:#633D39;" d="M416.565,191.997c-2.622-1.852-4.678-3.48-6.91-4.816c-1.391-0.833-3.083-1.144-4.569-1.843
						c-0.825-0.388-2.431,0.336-2.422-1.003c0.01-1.453,1.556-1.211,2.611-1.289C410.277,182.68,415.386,186.469,416.565,191.997z"
						/>
					<path style="fill:#633E39;" d="M367.867,187.467c2.088-3.725,9.943-7.557,13.207-6.955c0.858,0.158,1.42,0.542,1.603,1.385
						c0.14,0.644-0.203,1.085-0.812,1.185C377.185,183.851,372.785,185.63,367.867,187.467z"/>
					<path style="fill:#58423F;" d="M371.355,201.265c0.07-1.603,0.756-2.841,2.479-2.88c1.48-0.033,2.627,0.915,2.567,2.432
						c-0.063,1.573-0.756,3.189-2.614,3.287C372.065,204.194,371.266,203.003,371.355,201.265z"/>
					<path style="fill:#57423F;" d="M408.978,206.096c0.066,1.489-0.377,2.699-2.074,2.731c-1.757,0.034-2.609-1.161-2.546-2.757
						c0.055-1.403,0.369-3.096,2.269-3.005C408.309,203.146,408.933,204.504,408.978,206.096z"/>
				</g>
			</g>
			<path style="fill:none;" d="M455.474,462.546c-7.637,5.702-16.303,8.751-25.726,9.41c-10.591,0.741-20.318,4.829-30.452,7.333
				c-10.569,2.612-21.113,5.328-31.703,7.847c-8.239,1.96-15.756,5.579-23.102,9.62c-4.537,2.496-8.985,5.152-13.473,7.736
				c-1.153,2.401-3.745,2.904-5.68,4.26c-5.372,3.765-11.155,6.964-15.647,11.913c-0.868,0.956-1.801,2.311-3.521,1.986
				c-4.357-0.127-4.78-1.371-2.237-6.576c0.401-1.542,0.137-3.259,1.264-4.753c-1.015,0.324-1.958,0.605-2.906,0.872
				c-3.067,2.894-6.237,5.569-10.875,5.133c-0.185-2.304,0.327-4.447,1.457-6.451c1.328-3.125,3.708-5.493,5.8-8.067
				c0.387-0.464,0.715-0.977,1.211-1.48c-0.487,0.287-0.665,0.726-0.971,1.049c-2.363,2.286-3.64,5.598-6.767,7.16
				c-1.616,1.434-3.117,3.031-4.874,4.263c-2.746,1.927-4.492,1.021-5.044-2.391c2.964-3.716,5.928-7.432,8.893-11.148
				c-0.285-0.977-0.627,0.059-0.937-0.026c-2.085,0.803-4.481,2.653-6.242,0.166c-1.856-2.621,0.519-4.345,2.303-6.024
				c2.238-2.104,4.27-4.44,6.607-6.421c1.51-1.281,2.123-2.649,1.855-4.521c1.387,0.186,2.53-0.268,3.627-1.14
				c7.938-6.307,17.228-9.08,27.114-10.281c8.076-0.798,16.297-0.046,24.203-2.644c4.523-1.486,8.709-3.677,13.02-5.606
				c2.72-1.217,5.451-2.344,8.338-3.071c4.565-1.409,8.692-3.742,12.809-6.097c5.748-3.289,11.876-4.779,18.063-7.126
				c7.405-2.809,14.809-5.617,22.214-8.426c5.015-1.902,5.988-4.567,6.967-9.493c0.862-4.336,1.6-8.696,2.268-13.066
				c1.273-8.323,2.28-16.684,3.372-25.033c0.794-6.067,2.116-12.113,3.062-18.192c0.351-2.258,0.994-3.364,3.619-2.103
				c8.109,3.897,17.204,3.367,25.732,5.44c2.776,0.675,5.595,1.255,8.495,0.867c0.186,6.65-0.953,13.182-2.226,19.637
				c-2.795,14.166-4.288,28.51-6.232,42.789C467.838,449.549,463.697,457.205,455.474,462.546z"/>
		</g>
		<path style="fill:#F4D1D9;" d="M348.386,483.278c-1.636-2.781-3.192-5.638-5.266-8.127c-0.839-1.006-2.386-1.634-2.915-2.885
			c-0.678-1.603,1.041-2.319,2.495-2.411c2.344-0.148,4.187,1.916,5.475,3.881c1.785,2.722,3.279,5.634,4.452,8.669
			c1.136,2.941,2.729,5.748,2.366,9.013c-0.165,1.486-1.334,2.611-2.713,2.671c-0.647,0.028-1.188-0.494-1.213-1.141
			c-0.044-1.139-0.121-2.942-0.153-3.119C350.499,487.538,349.565,485.28,348.386,483.278z"/>
	</g>
</g>
</svg>
