<?xml version="1.0" encoding="utf-8"?>
<!-- Generator: Adobe Illustrator 27.5.0, SVG Export Plug-In . SVG Version: 6.00 Build 0)  -->
<svg version="1.1" xmlns="http://www.w3.org/2000/svg" xmlns:xlink="http://www.w3.org/1999/xlink" x="0px" y="0px"
	 viewBox="0 0 2200 1466" style="enable-background:new 0 0 2200 1466;" xml:space="preserve">
<g id="background">
	
</g>
<g id="objects">
	<g>
		<path style="fill:#FFE49F;" d="M1730.205,853.785v110.919h-96.098c0,0,0-97.552,0-109.271c0-11.71-1.295-38.365-1.295-38.365
			c-19.482-284.108-256.123-508.537-545.183-508.537S561.927,532.96,542.445,817.068c0,0-1.295,26.655-1.295,38.365
			c0,11.719,0,109.271,0,109.271h-96.098V853.785c0-11.71,1.471-59.759,1.471-59.759
			c30.717-327.055,306.023-582.985,641.105-582.985s610.388,255.929,641.105,582.985
			C1728.733,794.026,1730.205,842.075,1730.205,853.785z"/>
		<path style="fill:#F79292;" d="M1829.052,849.177v115.527h-98.847V853.785c0-11.71-1.472-59.759-1.472-59.759
			c-30.717-327.055-306.022-582.985-641.105-582.985S477.24,466.97,446.523,794.026c0,0-1.471,48.049-1.471,59.759v110.919h-98.847
			V849.177c3.128-406.808,333.884-735.617,741.424-735.617S1825.924,442.369,1829.052,849.177z"/>
		<path style="fill:#DEB3FF;" d="M1536.626,855.01v109.694h-97.481V855.01c0-194.134-157.382-351.516-351.516-351.516
			S736.112,660.876,736.112,855.01v109.694h-97.481V855.01c0-247.972,201.025-448.997,448.997-448.997
			S1536.626,607.038,1536.626,855.01z"/>
		<path style="fill:#A8E6F4;" d="M1634.107,855.433c0,11.719,0,109.271,0,109.271h-97.481V855.01
			c0-247.972-201.025-448.997-448.997-448.997S638.631,607.038,638.631,855.01v109.694h-97.481c0,0,0-97.552,0-109.271
			c0-11.71,1.295-38.365,1.295-38.365c19.482-284.108,256.123-508.537,545.183-508.537s525.701,224.428,545.183,508.537
			C1632.812,817.068,1634.107,843.723,1634.107,855.433z"/>
		<path style="fill:#EDEDED;" d="M779.542,1127.746c-56.917,99.445-157.177,170.076-238.386,208.81
			c-81.209-38.733-181.486-109.356-238.403-208.81c-35.386-61.833-65.181-137.661-35.368-202.369
			c32.406-70.351,130.984-94.511,199.109-57.671c33.213,17.965,58.451,47.076,74.654,81.121
			c16.203-34.045,41.441-63.156,74.654-81.121c68.125-36.841,166.711-12.68,199.118,57.671
			C844.723,990.084,814.928,1065.912,779.542,1127.746z"/>
		<path style="fill:#EDEDED;" d="M1872.5,1127.746c-56.917,99.445-157.177,170.076-238.386,208.81
			c-81.209-38.733-181.486-109.356-238.403-208.81c-35.386-61.833-65.181-137.661-35.368-202.369
			c32.406-70.351,130.984-94.511,199.109-57.671c33.213,17.965,58.451,47.076,74.654,81.121
			c16.203-34.045,41.441-63.156,74.654-81.121c68.125-36.841,166.711-12.68,199.118,57.671
			C1937.681,990.084,1907.886,1065.912,1872.5,1127.746z"/>
	</g>
</g>
</svg>
